<svg xmlns="http://www.w3.org/2000/svg" viewBox="0 0 177.01 177.01"><defs><style>.cls-1{fill:#ed1c24;}.cls-2{fill:#fbb040;}.cls-3{fill:#f7941e;}.cls-4{fill:#f15a29;}</style></defs><title>graph-token-dist</title><g id="Layer_2" data-name="Layer 2"><g id="contenido_A" data-name="contenido A"><path class="cls-1" d="M31.47,88.5a57,57,0,0,1,57-57h0V0a86.25,86.25,0,0,0-48.2,14.27,88.46,88.46,0,0,0-26,122.39l26.37-17.13A56.7,56.7,0,0,1,31.47,88.5Z"/><path class="cls-2" d="M88.5,145.54a57,57,0,0,1-47.84-26L14.29,136.66C33.45,166.16,66,181,100.83,176.08L96.45,145A57.89,57.89,0,0,1,88.5,145.54Z"/><path class="cls-3" d="M132.18,51.84A57,57,0,0,1,96.45,145l4.38,31.1c17.42-2.44,31.08-8.53,44.56-19.83A88.46,88.46,0,0,0,156.3,31.6Z"/><path class="cls-4" d="M132.18,51.84,156.3,31.6C138.71,10.65,115.88,0,88.51,0V31.47A56.89,56.89,0,0,1,132.18,51.84Z"/></g></g></svg>