<?xml version="1.0" encoding="utf-8"?>
<!-- Generator: Adobe Illustrator 22.0.1, SVG Export Plug-In . SVG Version: 6.00 Build 0)  -->
<svg version="1.1" id="Layer_1" xmlns="http://www.w3.org/2000/svg" xmlns:xlink="http://www.w3.org/1999/xlink" x="0px" y="0px"
	 viewBox="0 0 111.1 24.1" style="enable-background:new 0 0 111.1 24.1;" xml:space="preserve">
<style type="text/css">
	.st0{fill:#000000;}
</style>
<g>
	<path class="st0" d="M12.4,0C5.7-0.1,0,5.2,0,12c0,6.6,5.4,12.1,12,12.1c6.7,0,12.2-5.4,12.2-12.1C24.2,5.4,18.8,0.1,12.4,0z
		 M12.1,23.2C6,23.3,0.8,18.2,0.9,11.9C1,5.7,5.9,0.8,12.2,0.8C18.4,0.9,23.3,5.9,23.3,12C23.3,18.2,18.2,23.2,12.1,23.2z"/>
	<path class="st0" d="M9.6,14.6c0,0.9,0,1.9,0,2.8c0,0.6,0.3,1.1,0.7,1.5c0.9,0.7,2.4,0.8,3.3,0.1c0.5-0.4,0.8-0.9,0.8-1.5
		c0-0.7,0.1-1.3,0-2c0-0.4-0.1-0.9-0.2-1.3c-0.1-0.6-0.7-1-1.2-1c0,0.1,0,0.2,0,0.3c0,1.1,0,2.2,0,3.3c0,0.3-0.1,0.5-0.1,0.8
		c-0.1,0.4-0.5,0.6-1,0.6c-0.4,0-0.8-0.2-0.9-0.6c0-0.4,0-0.7,0-0.9c0-1,0-1.9,0-2.9c0-0.2,0-0.5,0-0.8C10.2,13.2,9.7,13.9,9.6,14.6
		z"/>
	<path class="st0" d="M13.8,11.2c0.5-0.3,0.7-0.8,0.7-1.3c0-0.8,0-1.5,0-2.3c0-0.5-0.1-1-0.4-1.4c-0.4-0.7-1.1-1-1.8-1
		C10.9,5,9.6,5.9,9.6,7.5c0,0.7,0,1.4,0,2.1c0,0.2,0,0.3,0,0.5c0.1,0.6,0.5,1,0.9,1.3c0.1,0.1,0.2,0.1,0.3,0.2c0-0.1,0-0.1,0-0.2
		c0-1,0-1.9,0-2.9c0-0.4,0-0.7,0.1-1.1c0.1-0.6,0.5-0.9,1-0.9c0.6,0,1,0.3,1.1,0.9c0,0.1,0,0.2,0,0.3c0,1.3,0,2.6,0,3.9
		C13.4,11.4,13.6,11.3,13.8,11.2z"/>
	<path class="st0" d="M12.7,9.2c0-0.3-0.1-0.4-0.4-0.4c-0.1,0-0.2,0-0.4,0c-0.4,0-0.5,0.1-0.5,0.5c0,1.9,0,3.9,0,5.8
		c0,0.1,0,0.1,0,0.2c0,0.2,0.2,0.4,0.4,0.4c0.1,0,0.3,0,0.4,0c0.3,0,0.5-0.1,0.5-0.5c0-1,0-2,0-3S12.7,10.2,12.7,9.2z"/>
</g>
<rect x="40.6" y="3.7" class="st0" width="1" height="8.4"/>
<polygon class="st0" points="49.1,4.6 49.1,12.1 48.1,12.1 48.1,4.6 45.3,4.6 45.3,3.7 52,3.7 52,4.6 "/>
<path class="st0" d="M56.7,5.3L56.7,5.3c0,0,0,1,0,2v4.8h-1V3.7h1l4.9,6.7l0,0c0,0,0-1,0-2V3.7h1v8.4h-1L56.7,5.3z"/>
<path class="st0" d="M70.8,3.7h-1.1l-3.6,8.4h1L68,9.9h4.2l0.9,2.2h1L70.8,3.7z M68.5,9l0.9-2.2c0.3-0.8,0.8-1.9,0.8-1.9l0,0
	c0,0,0.5,1.2,0.8,2L72.1,9H68.5z"/>
<polygon class="st0" points="80.1,4.6 80.1,12.1 79.1,12.1 79.1,4.6 76.2,4.6 76.2,3.7 82.9,3.7 82.9,4.6 "/>
<rect x="86.7" y="3.7" class="st0" width="1" height="8.4"/>
<path class="st0" d="M95.8,3.5c-2.5,0-4.3,1.7-4.3,4.3s1.9,4.4,4.3,4.4s4.3-1.7,4.3-4.4C100.1,5.3,98.2,3.5,95.8,3.5z M95.8,11.3
	c-1.9,0-3.4-1.3-3.4-3.4s1.5-3.4,3.4-3.4s3.4,1.3,3.4,3.4C99.1,10,97.6,11.3,95.8,11.3z"/>
<path class="st0" d="M104.8,5.3L104.8,5.3c0,0,0,1,0,2v4.8h-1V3.7h1l4.9,6.7l0,0c0,0,0-1,0-2V3.7h1v8.4h-1L104.8,5.3z"/>
<path class="st0" d="M34.9,7.6L34.9,7.6c0.6-0.2,1.3-0.7,1.3-1.8c0-1.2-1-2.1-2.5-2.1h-3v5.7h-0.5V10h0.5v2h3.2
	c1.8,0,2.9-0.9,2.9-2.3C36.8,8.3,35.7,7.7,34.9,7.6z M31.7,4.5h1.9c1.1,0,1.7,0.5,1.7,1.4s-0.7,1.4-1.6,1.4h-1.9V4.5H31.7z
	 M33.9,11.2h-2.2V10h1.2V9.4h-1.2V8.1h2.2c1,0,1.9,0.6,1.9,1.6C35.8,10.7,35,11.2,33.9,11.2z"/>
<path class="st0" d="M34.6,20.4c0-0.4,0-0.4,0-0.5l0,0c-0.3,0.3-0.8,0.6-1.5,0.6c-1.3,0-2.5-1-2.5-2.6s1.1-2.6,2.5-2.6
	c1.1,0,1.9,0.6,2.2,1.4L34.4,17c-0.2-0.3-0.6-0.8-1.3-0.8c-0.9,0-1.5,0.7-1.5,1.7s0.7,1.7,1.6,1.7c0.7,0,1.2-0.4,1.4-0.6v-0.4h-1.3
	v-0.9h2.2v2.8h-0.9V20.4z"/>
<path class="st0" d="M40.4,15.2c-1.4,0-2.5,1.1-2.5,2.6s1.1,2.6,2.5,2.6s2.5-1.1,2.5-2.6S41.8,15.2,40.4,15.2z M40.4,19.5
	c-0.9,0-1.6-0.6-1.6-1.7c0-1,0.7-1.7,1.6-1.7c0.9,0,1.6,0.6,1.6,1.7C41.9,18.9,41.3,19.5,40.4,19.5z"/>
<path class="st0" d="M46.6,20.4l-1.8-5h1.1l0.8,2.5c0.3,1,0.5,1.5,0.5,1.5l0,0c0,0,0.2-0.5,0.5-1.5l0.8-2.5h1l-1.8,5H46.6z"/>
<polygon class="st0" points="51.9,15.3 55.3,15.3 55.3,16.3 52.8,16.3 52.8,17.3 54.7,17.3 54.7,18.3 52.8,18.3 52.8,19.5 
	55.3,19.5 55.3,20.4 51.9,20.4 "/>
<path class="st0" d="M60.5,18.4c0.6-0.2,1-0.7,1-1.4c0-1-0.7-1.7-1.9-1.7h-1.7v5h1v-1.8h0.4h0.3l1,1.8h1.1L60.5,18.4z M59.7,17.8
	h-0.8v-1.5h0.8c0.5,0,0.8,0.3,0.8,0.8C60.5,17.6,60.2,17.8,59.7,17.8z"/>
<path class="st0" d="M65.1,17L65.1,17c0,0,0,0.6,0,1.3v2.1h-1v-5h1l2.3,3.3l0,0c0,0,0-0.6,0-1.2v-2.1h1v5h-1L65.1,17z"/>
<path class="st0" d="M73.7,15.3h-1.1l-1.9,5h1l0.4-1h2.2l0.4,1h1L73.7,15.3z M72.4,18.5l0.4-1.1c0.2-0.4,0.3-0.9,0.3-0.9l0,0
	c0,0,0.2,0.5,0.3,0.9l0.4,1.1H72.4z"/>
<path class="st0" d="M78.9,17L78.9,17c0,0,0,0.6,0,1.3v2.1h-1v-5h1l2.3,3.3l0,0c0,0,0-0.6,0-1.2v-2.1h1v5h-1L78.9,17z"/>
<path class="st0" d="M89.5,18.9c-0.4,1-1.2,1.6-2.3,1.6c-1.4,0-2.5-1.1-2.5-2.6s1.1-2.6,2.5-2.6c1.1,0,1.9,0.6,2.2,1.4L88.5,17
	c-0.2-0.4-0.6-0.8-1.3-0.8c-0.9,0-1.5,0.7-1.5,1.7s0.6,1.7,1.5,1.7c0.7,0,1.2-0.4,1.4-0.9L89.5,18.9z"/>
<polygon class="st0" points="92,15.3 95.4,15.3 95.4,16.3 92.9,16.3 92.9,17.3 94.8,17.3 94.8,18.3 92.9,18.3 92.9,19.5 95.4,19.5 
	95.4,20.4 92,20.4 "/>
<path class="st0" d="M100.4,19.2L102,18c0.6-0.5,0.9-0.7,0.9-1.2c0-0.4-0.3-0.8-0.8-0.8s-0.8,0.3-0.8,0.7l-0.9-0.2
	c0.1-0.8,0.6-1.3,1.8-1.3c1.2,0,1.8,0.6,1.8,1.5c0,0.9-0.5,1.4-1.3,1.9l-1,0.8l0,0c0.1,0,0.2,0,0.7,0h1.7v0.9h-3.5v-1.1H100.4z"/>
<path class="st0" d="M105.2,19.9c0-0.3,0.2-0.5,0.5-0.5s0.5,0.2,0.5,0.5s-0.2,0.5-0.5,0.5C105.4,20.4,105.2,20.2,105.2,19.9z"/>
<path class="st0" d="M109.1,15.2c-1.4,0-1.9,1.2-1.9,2.6c0,1.5,0.5,2.6,1.9,2.6s1.9-1.1,1.9-2.6C111.1,16.4,110.6,15.2,109.1,15.2z
	 M109.1,19.5c-0.8,0-1-0.7-1-1.7s0.2-1.7,1-1.7s1,0.7,1,1.7C110.1,18.9,109.9,19.5,109.1,19.5z"/>
</svg>
