<?xml version="1.0" encoding="utf-8"?>
<!-- Generator: Adobe Illustrator 22.1.0, SVG Export Plug-In . SVG Version: 6.00 Build 0)  -->
<svg version="1.1" id="Layer_1" xmlns="http://www.w3.org/2000/svg" xmlns:xlink="http://www.w3.org/1999/xlink" x="0px" y="0px"
	 viewBox="0 0 1368.9 100" style="enable-background:new 0 0 1368.9 100;" xml:space="preserve">
<style type="text/css">
	.st0{fill:#FFFFFF;}
</style>
<path class="st0" d="M584.4,14.8c-4.3-4.3-9.7-8.2-15.6-10.5c-6.2-2.7-12.8-3.9-20.2-3.9c-7.4,0-14,1.2-20.2,3.9
	c-6.2,2.7-11.3,6.2-16,10.9c-4.3,4.7-7.8,9.7-10.5,16c-2.3,5.8-3.5,12.5-3.5,19.1s1.2,13.2,3.5,19.1c2.3,5.8,5.4,10.9,9.7,15.2
	l13.6-25.7l14,13.6l15.2-37l-6.6-2.7l8.9-6.6l8.9-6.6l1.2,10.9l1.2,10.9l-6.6-2.7L541.6,86l-14.8-14.8l-9.7,17.9
	c3.1,2.3,6.6,4.3,10.1,5.8c6.2,2.7,12.8,3.9,20.2,3.9c7.4,0,14-1.2,20.2-3.9c12.1-5.1,21.4-14.4,26.1-26.5
	c2.3-5.8,3.5-12.5,3.5-19.1s-1.2-13.2-3.5-19.1C592.2,24.5,588.7,19.1,584.4,14.8z"/>
<path class="st0" d="M0,98.1h67.7V82.5H17.1V1.2H0V98.1L0,98.1z M93.8,1.2v96.5h17.1V1.2H93.8L93.8,1.2z M183.3,75.5L154.1,1.2
	h-18.7l40.1,97.3h14.8l40.1-97.3h-18.3L183.3,75.5L183.3,75.5z M326.1,1.2h-71.6v96.5h72.4V82.5h-55.6V56.4h48.6V41.2h-48.6V16.3
	h54.9C326.1,16.3,326.1,1.2,326.1,1.2z"/>
<path class="st0" d="M745.1,68.1L693,1.2h-15.6v96.5h16.7V29.2l53.3,68.9h14.4V1.2h-16.7V68.1L745.1,68.1z M479.8,82.5l-10.9-10.9
	c-4.3,3.9-8.2,7-12.5,9.3s-9.3,3.5-15.2,3.5c-4.7,0-8.9-0.8-12.8-2.7s-7.4-4.3-10.1-7.4c-2.7-3.1-5.1-6.6-6.6-10.9
	c-1.6-4.3-2.3-8.6-2.3-13.6c0-4.7,0.8-9.3,2.3-13.2c1.6-4.3,3.9-7.8,6.6-10.9s6.2-5.4,10.1-7.4s8.2-2.7,12.8-2.7
	c5.4,0,10.5,1.2,14.8,3.5c4.3,2.3,8.6,5.1,12.5,8.6l10.9-12.5c-2.3-2.3-4.7-4.3-7.4-6.2c-2.7-1.9-5.4-3.5-8.6-4.7
	c-3.1-1.2-6.2-2.3-10.1-3.1c-3.5-0.8-7.8-1.2-12.1-1.2c-7.4,0-14,1.2-20.2,3.9s-11.3,6.2-15.6,10.9c-4.3,4.7-7.8,9.7-10.1,16
	s-3.5,12.5-3.5,19.5s1.2,13.6,3.9,19.5c2.3,6.2,5.8,11.3,10.1,16c4.3,4.3,9.7,8.2,15.6,10.5c5.8,2.7,12.5,3.9,19.5,3.9
	c4.7,0,8.6-0.4,12.5-1.2c3.9-0.8,7-1.9,10.1-3.5s6.2-3.5,8.9-5.4C474.7,87.5,477,85.2,479.8,82.5L479.8,82.5z M627.6,1.2v96.5h17.1
	V1.2H627.6z"/>
<path class="st0" d="M869.3,72.8l-23-71.6H828l33.9,97.3h14.8l23.7-69.6l23.7,69.6h14.8l33.9-97.3h-17.9l-23,71.6l-23.7-72h-14.4
	L869.3,72.8L869.3,72.8z M1034.2,0.4h-15.6l-42.4,97.3h17.5l10.1-23.3h45.5l9.7,23.3h17.9L1034.2,0.4L1034.2,0.4z M1042.8,59.5
	h-33.5l16.7-38.5L1042.8,59.5L1042.8,59.5z M1128.8,17.1h30.7V1.6h-78.6v15.6h30.7v80.9h17.1L1128.8,17.1L1128.8,17.1z M1263.4,82.5
	l-10.9-10.9c-4.3,3.9-8.2,7-12.5,9.3s-9.3,3.5-15.2,3.5c-4.7,0-8.9-0.8-12.8-2.7c-3.9-1.9-7.4-4.3-10.1-7.4
	c-2.7-3.1-5.1-6.6-6.6-10.9c-1.6-4.3-2.3-8.6-2.3-13.6c0-4.7,0.8-9.3,2.3-13.2c1.6-4.3,3.9-7.8,6.6-10.9s6.2-5.4,10.1-7.4
	c3.9-1.9,8.2-2.7,12.8-2.7c5.4,0,10.5,1.2,14.8,3.5s8.6,5.1,12.5,8.6l10.9-12.5c-2.3-2.3-4.7-4.3-7.4-6.2c-2.7-1.9-5.4-3.5-8.6-4.7
	c-3.1-1.2-6.2-2.3-10.1-3.1c-3.5-0.8-7.8-1.2-12.1-1.2c-7.4,0-14,1.2-20.2,3.9s-11.3,6.2-15.6,10.9s-7.8,9.7-10.1,16
	c-2.3,6.2-3.5,12.5-3.5,19.5s1.2,13.6,3.9,19.5c2.3,6.2,5.8,11.3,10.1,16c4.3,4.3,9.7,8.2,15.6,10.5c5.8,2.7,12.5,3.9,19.5,3.9
	c4.7,0,8.6-0.4,12.5-1.2c3.9-0.8,7-1.9,10.1-3.5c3.1-1.6,6.2-3.5,8.9-5.4C1258.4,87.5,1261.1,85.2,1263.4,82.5L1263.4,82.5z
	 M1351.8,57.2v40.9h17.1V1.2h-17.1v40.1h-46.3V1.2h-17.1v96.5h17.1V57.2H1351.8z"/>
</svg>
