<?xml version="1.0" encoding="utf-8"?>
<!-- Generator: Adobe Illustrator 22.1.0, SVG Export Plug-In . SVG Version: 6.00 Build 0)  -->
<svg version="1.1" id="Layer_1" xmlns="http://www.w3.org/2000/svg" xmlns:xlink="http://www.w3.org/1999/xlink" x="0px" y="0px"
	 viewBox="0 0 797 100" style="enable-background:new 0 0 797 100;" xml:space="preserve">
<style type="text/css">
	.st0{fill:#FFFFFF;}
	.st1{fill:#FFFFFF;stroke:#66BF77;stroke-width:6;stroke-miterlimit:10;}
</style>
<g>
	<path class="st0" d="M201.2,75c-4.6,2.3-10.2,3.3-17.4,3.3c-9.2,0-16.8-2.6-22-8.2c-5.3-5.6-7.9-12.8-7.9-22c0-9.9,3-17.8,8.9-23.7
		c5.9-5.9,13.8-9.2,23.3-9.2c5.9,0,10.9,0.7,15.1,2.3v13.2c-3.9-2.3-8.9-3.6-13.8-3.6c-5.6,0-10.2,1.6-13.8,5.3
		c-3.6,3.6-5.3,8.5-5.3,14.5s1.6,10.5,4.9,14.1c3.3,3.6,7.9,5.3,13.5,5.3c5.3,0,10.2-1.3,14.8-3.9L201.2,75L201.2,75z"/>
	<path class="st0" d="M239,45.7c-1.6-1-3.6-1.3-5.6-1.3c-3,0-5.3,1-6.9,3.3c-1.6,2-2.3,4.9-2.3,8.9v20.7h-13.5V33.9h13.5v8.2h0.3
		c2-5.9,5.9-8.9,11.5-8.9c1.3,0,2.6,0.3,3.3,0.7v11.8H239z"/>
	<path class="st0" d="M289.9,33.9l-17.8,47c-4.3,11.2-10.5,16.8-19.1,16.8c-3.3,0-5.9-0.3-7.9-1V85.9c1.6,1,3.6,1.6,5.9,1.6
		c3.3,0,5.9-1.6,7.2-4.9l2.3-5.3l-17.8-43.4h14.8l8.2,26.3c0.7,1.6,1,3.6,1.3,5.9h0.3c0.3-1.6,0.7-3.6,1.3-5.6l8.2-26.6
		C277.1,33.9,289.9,33.9,289.9,33.9z"/>
	<path class="st0" d="M309,72L309,72l-0.3,25h-13.5V33.9h13.5v6.6h0.3c3.3-4.9,7.9-7.6,13.8-7.6c5.6,0,9.9,2,13.2,5.9
		c3,3.9,4.6,9.2,4.6,15.8c0,7.2-1.6,13.2-5.3,17.4c-3.6,4.3-8.2,6.6-14.1,6.6C315.6,78.3,311.6,76.3,309,72z M308.4,54.3v3.6
		c0,3,0.7,5.6,2.3,7.2c1.6,2,3.6,3,6.2,3c3,0,5.3-1.3,7.2-3.6c1.6-2.3,2.6-5.6,2.6-10.2c0-7.6-3-11.5-8.9-11.5c-2.6,0-4.9,1-6.6,3
		C309.3,48.4,308.4,51,308.4,54.3z"/>
	<path class="st0" d="M375.4,76.7c-2,1-4.9,1.6-8.9,1.6c-9.5,0-14.1-4.9-14.1-14.8V43.4h-6.9v-9.9h6.9v-9.2l13.5-3.9v13.2h9.9v9.9
		h-9.9v17.4c0,4.6,1.6,6.9,5.3,6.9c1.3,0,3-0.3,4.3-1.3V76.7z"/>
	<path class="st0" d="M403.4,78.3c-7.2,0-12.8-2-17.1-6.2c-4.3-4.3-6.2-9.5-6.2-16.4c0-7.2,2.3-12.8,6.6-16.8
		c4.3-3.9,10.2-6.2,17.4-6.2c7.2,0,12.8,2,17.1,6.2c3.9,3.9,6.2,9.5,6.2,16.1c0,7.2-2,12.8-6.2,17.1
		C416.5,76.3,410.6,78.3,403.4,78.3z M403.7,43.1c-3.3,0-5.6,1-7.2,3.3c-1.6,2.3-2.6,5.3-2.6,9.2c0,8.2,3.3,12.5,10.2,12.5
		c6.6,0,9.5-4.3,9.5-12.8C413.6,47.1,410.3,43.1,403.7,43.1z"/>
	<path class="st0" d="M482,77.6c-4.6,2.3-10.2,3.3-17.4,3.3c-9.2,0-16.8-2.6-22-8.2c-5.3-5.6-7.9-12.8-7.9-22c0-9.9,3-17.8,8.9-23.7
		c5.9-5.9,13.8-9.2,23.3-9.2c5.9,0,10.9,0.7,15.1,2.3v13.2c-3.9-2.3-8.9-3.6-13.8-3.6c-5.6,0-10.2,1.6-13.8,5.3
		c-3.6,3.6-5.3,8.5-5.3,14.5s1.6,10.5,4.9,14.1c3.3,3.6,7.9,5.3,13.5,5.3c5.3,0,10.2-1.3,14.8-3.9v12.8
		C482.3,77.6,482,77.6,482,77.6z"/>
	<path class="st0" d="M511.9,80.9c-7.2,0-12.8-2-17.1-6.2c-4.3-3.9-6.2-9.5-6.2-16.4c0-7.2,2.3-12.8,6.6-16.8s10.2-6.2,17.4-6.2
		c7.2,0,12.8,2,17.1,6.2c3.9,3.9,6.2,9.5,6.2,16.1c0,7.2-2,12.8-6.2,17.1C525.1,79,519.1,80.9,511.9,80.9z M512.2,45.7
		c-3.3,0-5.6,1-7.2,3.3c-1.6,2.3-2.6,5.3-2.6,9.2c0,8.2,3.3,12.5,10.2,12.5c6.6,0,9.5-4.3,9.5-12.8
		C521.8,49.7,518.8,45.7,512.2,45.7z"/>
	<path class="st0" d="M613.2,79.9h-13.5V55.3c0-6.2-2.3-9.5-6.9-9.5c-2.3,0-3.9,1-5.3,3c-1.3,2-2,4.3-2,7.2v24.3h-13.5v-25
		c0-6.2-2.3-9.2-6.9-9.2c-2.3,0-4.3,1-5.6,2.6c-1.3,2-2,4.3-2,7.2v24h-13.5V36.5h13.5v6.9h0.3c1.3-2.3,3.3-4.3,5.9-5.6
		s5.3-2.3,8.2-2.3c6.2,0,10.2,2.6,12.5,8.2c3.3-5.3,8.2-8.2,14.5-8.2c9.5,0,14.1,5.9,14.1,17.4L613.2,79.9L613.2,79.9z"/>
	<path class="st0" d="M637.5,74.7L637.5,74.7l-0.3,25h-13.5V36.5h13.5v6.6h0.3c3.3-4.9,7.9-7.6,13.8-7.6c5.6,0,9.9,2,13.2,5.9
		c3,3.9,4.6,9.2,4.6,15.8c0,7.2-1.6,13.2-5.3,17.4c-3.6,4.3-8.2,6.6-14.1,6.6C644.4,80.9,640.2,79,637.5,74.7z M637.2,56.9v3.6
		c0,3,0.7,5.6,2.3,7.2c1.6,2,3.6,3,6.2,3c3,0,5.6-1.3,7.2-3.6c1.6-2.3,2.6-5.6,2.6-10.2c0-7.6-3-11.5-8.9-11.5c-2.6,0-4.9,1-6.6,3
		S637.2,53.6,637.2,56.9z"/>
	<path class="st0" d="M713.2,79.9h-12.8v-6.2H700c-3,4.9-7.2,7.2-12.8,7.2c-4.3,0-7.6-1.3-9.9-3.6c-2.3-2.3-3.6-5.6-3.6-9.5
		c0-8.5,4.9-13.2,15.1-14.5l11.8-1.6c0-4.6-2.6-7.2-7.9-7.2c-5.3,0-10.2,1.6-14.8,4.6V38.8c2-1,4.3-2,7.6-2.6c3.3-0.7,6.2-1,8.9-1
		c12.5,0,18.7,6.2,18.7,18.4V79.9L713.2,79.9z M700.7,62.2v-3l-7.9,1c-4.3,0.7-6.6,2.6-6.6,5.9c0,1.6,0.7,2.6,1.6,3.6
		c1,1,2.6,1.3,4.3,1.3c2.6,0,4.6-1,6.2-2.6C700,66.8,700.7,64.8,700.7,62.2z"/>
	<path class="st0" d="M752.3,48.4c-1.6-1-3.6-1.3-5.6-1.3c-3,0-5.3,1-6.9,3.3c-1.6,2.3-2.3,4.9-2.3,8.9v20.7H724V36.5h13.5v8.2h0.3
		c2-5.9,5.9-8.9,11.5-8.9c1.3,0,2.6,0.3,3.3,0.7v11.8C752.6,48.4,752.3,48.4,752.3,48.4z"/>
	<path class="st0" d="M797,61.9h-28.3c0.3,6.2,4.3,9.5,11.8,9.5c4.9,0,8.9-1,12.5-3.3v9.5c-3.9,2.3-9.2,3.3-15.8,3.3
		c-6.9,0-12.5-2-16.4-5.9s-5.9-9.2-5.9-16.4s2-12.8,6.2-17.1c4.3-4.3,9.2-6.2,15.5-6.2s11.2,2,14.8,5.6c3.6,3.6,5.3,8.9,5.3,15.5
		v5.6H797z M784.8,53.6c0-6.2-2.6-9.2-7.6-9.2c-2.3,0-3.9,1-5.6,2.6c-1.6,1.6-2.6,3.9-3,6.6H784.8z"/>
	<polygon id="XMLID_2_" class="st0" points="46.3,72.4 46.3,61.2 58.1,49.4 58.1,72.4 	"/>
	<polygon id="XMLID_3_" class="st0" points="63.7,72.4 63.7,56.6 69.3,60.9 76.2,54.9 76.2,72.4 	"/>
	<polygon id="XMLID_4_" class="st0" points="81.1,72.4 94.6,72.4 94.6,38.8 81.1,51 	"/>
	<path id="XMLID_14_" class="st0" d="M45.6,54.9L43,51.7l15.1-14.5L69,47.4L88.4,30L85.1,26l13.5-3l-2.6,13.2L92,33.6L68.6,55.9
		l-10.5-9.9l-1-1c0,0-10.2,10.5-10.9,10.2"/>
	<path class="st0" d="M85.7,94.7l-3.3-12.8c19.4-5.3,35.5-16.1,43.1-28.9c2.6-4.6,5.3-11.5,3.3-18.7c-4.9-17.8-34.2-26-64.1-17.8
		L61.4,3.7c37.8-10.2,73,1.6,79.9,27c2.6,9.2,1,19.1-4.6,28.6C127.8,75.3,108.8,88.5,85.7,94.7z"/>
	<path id="XMLID_12_" class="st1" d="M16.7,64.5"/>
	<path class="st0" d="M54.5,100c-26.6,0-48-11.5-53.3-30.6c-2.6-9.2-1-19.1,4.6-28.6C15,25,34.1,11.9,56.8,5.6l3.3,12.8
		C40.7,23.7,24.6,34.6,17,47.4c-2.6,4.6-5.3,11.5-3.3,18.7c4.9,17.8,34.2,26,63.8,17.8l3.3,12.8C72.3,99,63,100,54.5,100z"/>
</g>
</svg>
