<?xml version="1.0" encoding="utf-8"?>
<!-- Generator: Adobe Illustrator 22.1.0, SVG Export Plug-In . SVG Version: 6.00 Build 0)  -->
<svg version="1.1" id="Layer_1" xmlns="http://www.w3.org/2000/svg" xmlns:xlink="http://www.w3.org/1999/xlink" x="0px" y="0px"
	 viewBox="0 0 581.5 100" style="enable-background:new 0 0 581.5 100;" xml:space="preserve">
<style type="text/css">
	.st0{fill:#FFFFFF;}
</style>
<g>
	<path class="st0" d="M85.6,59.8C83.9,61,81.7,61,80.2,60c-2-1.2-3.2-3.7-3.2-7.3v-11c0-5.4-2.2-9-5.6-10c-5.9-1.7-10.2,5.6-12,8.3
		L49,56.8V36.1c0-4.6-1.7-7.6-4.6-8.5c-2-0.5-4.9-0.2-7.6,3.9L13.7,69.3C10.5,63.4,9,56.8,9,50c0-22.4,18-41,40.2-41
		s40.2,18.3,40.2,41l0,0l0,0C89.8,54.6,88.3,58,85.6,59.8L85.6,59.8z M98.5,50L98.5,50L98.5,50L98.5,50C98.3,22.2,76.3,0,49.3,0
		S0,22.4,0,50s22.2,50,49.3,50c12.4,0,24.4-4.6,33.4-13.4c1.7-1.7,2-4.6,0.2-6.3c-1.7-1.7-4.4-2-6.3-0.2l0,0
		c-7.3,7.1-17.3,11-27.3,11c-12,0-22.7-5.4-30-13.7l21-33.7v15.6c0,7.6,2.9,10,5.4,10.5c2.4,0.7,6.1,0.2,10-6.1l11.5-18.8
		c0.5-0.5,0.7-1.2,1-1.5v9.5c0,7.1,2.7,12.7,7.6,15.4c4.4,2.4,10,2.2,14.4-0.5C95.9,64.1,98.8,57.6,98.5,50z M167.1,32.9
		c1.2,0.7,2.2,2.4,2.2,3.7c0,2.4-2,4.1-4.1,4.1c-0.5,0-1.2-0.2-1.5-0.2c-2.7-2-5.9-3.2-9.3-3.2c-8.3,0-13.9,6.8-13.9,15.1
		s5.6,14.9,13.9,14.9c4.1,0,7.8-1.7,10.5-4.1c0.7-0.5,1.5-0.7,2.4-0.7c2.2,0,3.9,1.7,3.9,3.9c0,1.5-1,2.7-2,3.4
		c-3.9,3.4-9.3,5.6-14.9,5.6c-12.7,0-22.9-10.5-22.9-23.2S141.7,29,154.4,29C159,29,163.4,30.5,167.1,32.9z M190.2,42.7
		c8.5,0,15.9,7.3,15.9,16.3s-7.3,16.6-15.9,16.6c-9,0-16.6-7.6-16.6-16.6S181.2,42.7,190.2,42.7z M190,67.3c3.9,0,7.1-3.7,7.1-8.5
		S193.9,51,190,51c-4.1,0-7.6,2.9-7.6,7.8C182.4,63.9,185.9,67.3,190,67.3z M211.5,70.5V47.6c0-2.4,2-4.6,4.4-4.6s4.4,2.2,4.4,4.6
		v22.9c0,2.4-2,4.6-4.4,4.6S211.5,72.9,211.5,70.5z M210.7,34.4c0-2.9,2.2-5.4,5.1-5.4c2.9,0,5.4,2.4,5.4,5.4s-2.4,5.1-5.4,5.1
		C212.9,39.5,210.7,37.3,210.7,34.4z M237.3,58v12.4c0,2.4-2,4.6-4.4,4.6s-4.4-2.2-4.4-4.6V46.6c0-2,1.5-3.4,3.4-3.4
		c2,0,3.4,1.7,3.4,3.4c3.7-3.4,6.8-3.9,9.8-3.9c9,0,12.9,6.8,12.9,14.4v13.4c0,2.4-2,4.6-4.4,4.6s-4.4-2.2-4.4-4.6V58
		c0-3.9-0.5-7.3-6.1-7.3C239,50.7,237.3,54.1,237.3,58L237.3,58z M286.8,62.7c-1,0-1.7-0.5-2.2-1.2l-10.5-11.2v20
		c0,2.4-2,4.6-4.4,4.6s-4.4-2.2-4.4-4.6V30.7c0.2-0.7,1-1.2,1.7-1.2c0.7,0,1.5,0.7,2,1.2l16.6,18.5c0.5,0.5,1.2,1,1.5,1s1-0.2,1.5-1
		l16.6-18.5c0.5-0.5,1.2-1.2,2-1.2s1.5,0.5,1.7,1.2v39.8c0,2.4-2,4.6-4.4,4.6c-2.4,0-4.4-2.2-4.4-4.6v-20l-10.5,11.2
		C288.5,62.2,287.8,62.7,286.8,62.7L286.8,62.7z M329.8,67.3c3.9,0,7.3-3.7,7.3-8.5s-3.4-8-7.3-8c-3.9,0-7.1,3.2-7.1,8
		S325.9,67.3,329.8,67.3z M339.3,71.5l-0.2-1c-1.7,3.4-7.3,4.9-10.7,4.9c-8.3,0-14.4-7.6-14.4-16.6s6.3-16.3,14.9-16.3
		c1.5,0,6.3,0.5,10.2,4.9l0.2-1c0-2,1.5-3.4,3.4-3.4c2,0,3.4,1.7,3.4,3.4v24.9c0,2-1.5,3.4-3.4,3.4
		C340.7,75.1,339.3,73.4,339.3,71.5L339.3,71.5z M370.7,50.7h-1c-5.6,0.2-6.6,3.4-6.6,7.3v12.4c0,2.4-2,4.6-4.4,4.6
		c-2.4,0-4.4-2.2-4.4-4.6V46.6c0-2,1.5-3.4,3.4-3.4s3.4,1.7,3.4,3.4c3.4-3.2,6.1-3.7,8.8-3.9h1c2.2,0,4.1,2,4.1,4.1
		C374.9,49,372.9,50.7,370.7,50.7L370.7,50.7z M405.1,68.3c0.5,0.7,0.7,1.5,0.7,2.2c0,2.4-2.2,4.4-4.4,4.4c-1.5,0-2.9-1.2-3.9-2.4
		l-10.2-12v9.8c0,2.4-2,4.6-4.4,4.6s-4.4-2.2-4.4-4.6V34.1c0-2.4,2-4.6,4.4-4.6s4.4,2.2,4.4,4.6v22.7l10.2-11.5
		c1-1.2,2.2-2.4,3.9-2.4c2.2,0,4.1,2.2,4.1,4.4c0,0.7-0.2,1.5-0.5,2.2l-8,8.8L405.1,68.3L405.1,68.3z M422.4,51
		c-2.4,0-6.3,1.2-6.3,5.1H429C429,52.2,424.9,51,422.4,51L422.4,51z M434.1,61.7h-18c0,5.4,5.1,6.1,7.3,6.1c1.7,0,3.9-0.2,5.9-1.2
		c0.5-0.5,1.5-0.7,2.2-0.7c2,0,3.7,1.7,3.7,3.7c0,1.5-1,2.4-2,3.2c-2.7,2-6.3,2.4-9.8,2.4c-9,0-16.6-4.9-16.6-16.1
		c0-8.8,4.6-16.6,15.1-16.6c8.5,0,15.1,5.6,15.4,15.6C437.6,60,436.1,61.7,434.1,61.7L434.1,61.7z M459,75.4h-2.4
		c-6.8,0-10.7-2.9-10.7-13.7v-11h-2.2c-2.2,0-3.9-2-3.9-4.1c0-2.4,2-4.1,3.9-4.1h2.2v-8.3c0-2.4,2-4.6,4.4-4.6s4.4,2.2,4.4,4.6v8.5
		h3.7c2.2,0,3.9,2,3.9,4.1c0,2.2-2,4.1-3.9,4.1h-3.7v9.3c0,6.1,0.2,7.3,2.9,7.3h1.2c2.2,0,3.9,1.7,3.9,3.9
		C462.9,73.7,461.2,75.4,459,75.4L459,75.4z M502.2,32.9c1.2,0.7,2.2,2.4,2.2,3.7c0,2.4-2,4.1-4.1,4.1c-0.5,0-1.2-0.2-1.5-0.2
		c-2.7-2-5.9-3.2-9.3-3.2c-8.3,0-13.9,6.8-13.9,15.1s5.6,14.9,13.9,14.9c4.1,0,7.8-1.7,10.5-4.1c0.7-0.5,1.5-0.7,2.4-0.7
		c2.2,0,3.9,1.7,3.9,3.9c0,1.5-1,2.7-2,3.4c-3.9,3.4-9.3,5.6-14.9,5.6c-12.7,0-22.9-10.5-22.9-23.2S476.8,29,489.5,29
		C494.1,29,498.5,30.5,502.2,32.9L502.2,32.9z M524.6,67.3c3.9,0,7.3-3.7,7.3-8.5s-3.4-8-7.3-8s-7.1,3.2-7.1,8
		C517.6,63.7,520.7,67.3,524.6,67.3L524.6,67.3z M534.1,71.5l-0.2-1c-1.7,3.4-7.3,4.9-10.7,4.9c-8.3,0-14.4-7.6-14.4-16.6
		s6.3-16.3,14.9-16.3c1.5,0,6.3,0.5,10.2,4.9l0.2-1c0-2,1.5-3.4,3.4-3.4c2,0,3.4,1.7,3.4,3.4v24.9c0,2-1.5,3.4-3.4,3.4
		C535.6,75.1,534.1,73.4,534.1,71.5z M565.6,67.3c3.9,0,7.1-3.7,7.1-8.5s-3.2-8-7.1-8s-7.3,3.2-7.3,8S561.5,67.3,565.6,67.3z
		 M558,72.7v11.5c0,2.4-2,4.6-4.4,4.6s-4.4-2.2-4.4-4.6V46.6c0-2,1.5-3.4,3.4-3.4s3.4,1.7,3.4,3.9c3.4-3.4,7.3-4.1,10.5-4.1
		c8.8,0,14.9,7.3,14.9,16.3s-6.1,16.6-14.4,16.6C564.4,75.4,560.5,74.6,558,72.7L558,72.7z"/>
</g>
</svg>
