<svg id="Layer_1" data-name="Layer 1" xmlns="http://www.w3.org/2000/svg" viewBox="0 0 212 51"><defs><style>.cls-1{fill:#fff;fill-rule:evenodd;}</style></defs><title>logo-exchange-worldcore</title><g id="Page-1"><path id="Combined-Shape" class="cls-1" d="M6.09,42.15C8.72,37.68,9.15,30,9.44,25.29s.18-7.06,1.6-7.06,1.4,3.09,1.66,7.31c0,.21,0,.43.05.65h0c0,.55.08,1.12.14,1.7.26,3.3.62,8.2.86,10.46.44,4.16,3,6.17,6.27,6.17,3.59,0,5.72-1.89,6.25-6.28.08-.72.16-1.5.24-2.32h0c.13-1.55,1.53-15.94,1.61-17.18.28-4.55.18-7.06,1.6-7.06.54,0,1,.8,1.22,2.28.69,5.21.82,10.63,1.38,15.89.45,4.16,3,6.17,6.28,6.17,3.58,0,5.71-1.89,6.24-6.28.24-2,1.68-9.63,2.68-15.25A25.63,25.63,0,0,1,50,25.5C50,39.54,38.77,51,25,51A24.74,24.74,0,0,1,6.09,42.15Zm-3.6-5.57A25.79,25.79,0,0,1,0,25.5C0,11.46,11.23,0,25,0A24.72,24.72,0,0,1,43.39,8.26c-.45,3.89-3.1,17.73-3.53,20.65-.19,1.25-.52,1.91-1.24,1.91-.9,0-1.22-1.21-1.4-3.16-.11-1.16-.17-2.58-.27-4.15-.23-3.54-.56-7.32-.93-10.86C35.57,8.49,33,6.47,29.74,6.47c-3.59,0-5.71,1.9-6.24,6.29-.21,1.73-.77,8.4-1.27,14.24l-1,10.41c-.12,1.26-.52,1.91-1.25,1.91-1.43,0-1.39-3.09-1.66-7.31-.05-.76-.34-4.43-.44-5.61-.2-2.49-.37-5-.61-7.2C16.87,15,14.27,13,11,13c-3.59,0-5.72,1.9-6.24,6.28C4.16,24.6,3.59,33,2.49,36.58Z"/><path id="Shape" class="cls-1" d="M65.33,6.24h.12a1.9,1.9,0,0,1,1.41.34,2.6,2.6,0,0,1,.52,1.62h0l.68,4.38h0c0,.2.1.47.15.73s.08.54.1.74c.08.75.31,2.15.51,3.31.06.37.12.7.17,1l.12.74c0,.23.08.47.13.74h0l.67,4.38h0c0,.23.08.46.13.69a6,6,0,0,0,.18.64,2,2,0,0,0,.25.51,1,1,0,0,0,.35.32,1.4,1.4,0,0,0,.61.1,1.68,1.68,0,0,0,.67-.1c.57-.29.71-1.15.85-1.94l0-.24h0v-.09c0-.18.08-.45.12-.61a1.59,1.59,0,0,0,.06-.39c0-.12,0-.24,0-.37.15-.74.26-1.44.38-2.14s.23-1.48.38-2.18h0l.48-2.9h0c.06-.5.16-1,.26-1.51s.19-.92.24-1.34h0l.49-2.9h0a6.15,6.15,0,0,1,1-2.52,3.14,3.14,0,0,1,2.73-1,4.33,4.33,0,0,1,1.52.24,2.48,2.48,0,0,1,1.09.8A5,5,0,0,1,82.6,9.2c.18.72.29,1.47.38,2.09l0,.32c0,.15,0,.29.07.38a2.85,2.85,0,0,1,.06.39c0,.13,0,.26.06.38.1.46.19.94.27,1.43s.15,1,.22,1.46L84,17.06c.15.59.26,1.34.37,2.07.08.55.16,1.09.25,1.54.13.62.25,1.38.37,2.14s.24,1.61.37,2.17a4.51,4.51,0,0,0,.28.88,1.12,1.12,0,0,0,.52.57,1.57,1.57,0,0,0,.6.11,1.67,1.67,0,0,0,.62-.11c.71-.31.91-1.82,1-2.94,0-.25.06-.49.1-.68l.17-1.09c.09-.61.18-1.22.3-1.82h0l.93-5.82v0a2,2,0,0,0,.05-.36h0c0-.1,0-.21,0-.32l.35-2.24h0c0-.13.06-.38.11-.69a20.13,20.13,0,0,1,.71-3.66c.36-.56.81-.56,1.51-.56h.14c.83,0,1.22.18,1.37.65A4.48,4.48,0,0,1,94,8.78L93.47,12h0c0,.24-.09.52-.14.81h0c0,.24-.1.5-.13.71h0c0,.09,0,.28-.08.47-.06.38-.12.75-.16,1.13-.06.58-.17,1.14-.28,1.71s-.18,1-.24,1.49-.16,1-.26,1.55-.2,1.05-.26,1.59h0l-.44,2.8h0a1.15,1.15,0,0,1-.06.24.53.53,0,0,0,0,.11,7.66,7.66,0,0,1-.82,2.86,3.72,3.72,0,0,1-2.34,1.82,6.51,6.51,0,0,1-3.46-.17,3,3,0,0,1-1.16-.79,3.89,3.89,0,0,1-.8-1.27,29.2,29.2,0,0,1-1-4.91c-.08-.5-.15-.95-.21-1.3h0L80.27,13c0-.06,0-.18-.06-.31s-.06-.42-.07-.51c0-.33-.1-.76-.18-1.19s-.16-.85-.23-1.17a1.87,1.87,0,0,0-.2-.63.47.47,0,0,0-.39-.2c-.62,0-.72.69-.82,1.38h0v0h0l-.66,4h0c-.11.5-.19,1-.26,1.58s-.15,1.07-.26,1.57-.2,1.11-.28,1.68-.14,1-.24,1.49-.16.92-.24,1.45-.17,1.19-.28,1.71c-.06.29-.11.57-.15.85A10.76,10.76,0,0,1,75.39,27a4.69,4.69,0,0,1-.71,1.25,3.22,3.22,0,0,1-1.14.85h0a5.09,5.09,0,0,1-1.62.36,7.13,7.13,0,0,1-1.87-.12c-2.74-.55-3.16-3.5-3.54-6.13-.08-.54-.15-1.07-.25-1.55s-.19-1.17-.28-1.84-.23-1.62-.35-2.14c-.07-.33-.13-.76-.18-1.19s-.12-.86-.19-1.2h0l-.19-1.17v0a.47.47,0,0,0,0-.17,1.73,1.73,0,0,1,0-.2c0-.15,0-.33-.08-.52-.06-.36-.11-.71-.16-1.13l-.27-1.58h0c-.07-.39-.12-.72-.17-1.05s-.07-.43-.09-.53a1.8,1.8,0,0,0,0-.3A9.93,9.93,0,0,1,64,7.18a1,1,0,0,1,.09-.5h0a.75.75,0,0,1,.4-.33,1.84,1.84,0,0,1,.84-.11ZM98.89,20.59a12.7,12.7,0,0,0,0,2c0,.16,0,.36.07.54a4.18,4.18,0,0,0,.46,1.65h0l0,0h0l0,0h0l0,0h0l0,0h0l0,0h0l0,0h0l0,0,0,0,0,.07h0l0,0h0l0,0h0l0,0,0,0h0l0,0h0v0h0l.06.06h0l0,0h0l0,0,0,0,0,0h0l0,0v0h0l0,0h0l0,0h0l0,0h0l0,0h0l0,0h0l0,0h0l0,0h0l0,0h0l.05,0h0l0,0,0,0,0,0h0l0,0h0l0,0h0l0,0h0l0,0h0l.07,0h0l.06,0h0l0,0h0l0,0h0l0,0h0l0,0h0l0,0h0l.06,0h0l.08,0h0l0,0h0l0,0h0l.06,0h0l.07,0h0l0,0h0l.07,0h0l.06,0h.14l.08,0h.17l.06,0h.18l.1,0h0l.11,0h0l.23,0,.24,0h0l.23,0h1.84l.07,0h.12l.09,0h.29A3.2,3.2,0,0,0,107.9,25a5.11,5.11,0,0,0,.62-2.56V18.23a4.05,4.05,0,0,0-1.08-3,4.62,4.62,0,0,0-3.14-1c-.45,0-.91,0-1.36,0a7.76,7.76,0,0,0-1.23.17,3.46,3.46,0,0,0-1.82.94,4.14,4.14,0,0,0-.82,1.79,10.47,10.47,0,0,0-.15,2.31v.31c0,.16,0,.45,0,.76Zm4.85,8.91h-.53a9.45,9.45,0,0,1-4.43-1.07,5.65,5.65,0,0,1-2.7-3.62,4.58,4.58,0,0,1-.11-.56c0-.1,0-.2-.06-.34a17.59,17.59,0,0,1-.16-3.32v-.71A17.33,17.33,0,0,1,96,16.38a5.81,5.81,0,0,1,1.65-3.11c.22-.19.39-.35.58-.49h0a4.56,4.56,0,0,1,.67-.42,8.29,8.29,0,0,1,1.36-.58,10.07,10.07,0,0,1,1.46-.35,8.1,8.1,0,0,1,1.07-.08c.57,0,1.2,0,1.53,0a14.69,14.69,0,0,1,2.14.25,3.8,3.8,0,0,1,1.38.44l.1,0h0l.19.07h0l1,.59h0a4.18,4.18,0,0,1,.55.46c.21.21.41.43.55.6h0a6.7,6.7,0,0,1,.44.68,5.53,5.53,0,0,1,.33.71l.14.38.13.43a12.29,12.29,0,0,1,.36,3.86c0,.29,0,.59,0,1V21h0a13.37,13.37,0,0,1-.34,3.73,6.52,6.52,0,0,1-1.47,2.74,6.15,6.15,0,0,1-2.82,1.62,10.52,10.52,0,0,1-1.4.29,12,12,0,0,1-1.49.12h-.44ZM137,20.59a15.48,15.48,0,0,0,0,2c0,.16.05.36.07.54a4.18,4.18,0,0,0,.46,1.65h0l0,0h0l0,.05h0l0,0h0l0,0h0l0,0,0,0,0,0,0,.06h0v0h0l0,0,0,0h0l0,0h0l0,0h0l0,0h0l0,0h0l0,0h0l0,0h0l0,0,0,0,0,0h0l0,0h0l0,0h0l0,0h0l0,0h0l0,0h0l.06,0h0l0,0h0l.06,0h0l0,0,0,0,0,0h0l0,0h0l0,0h0l0,0h0l0,0h0l0,0h0l0,0h0l0,0h0l.07,0h0l.09,0h0l.06,0h0l0,0h0l0,0h0l.06,0h0l.08,0h0l0,0h0l.06,0h0l.06,0h0l.07,0h0l.05,0h0l.07,0h0l.06,0H140l.08,0h.17l.06,0h.18l.1,0h0l.11,0h0l.23,0,.24,0h0l.23,0h1.84l.07,0h.12l.09,0h.29A3.2,3.2,0,0,0,146,25a5,5,0,0,0,.62-2.56V18.23a4.13,4.13,0,0,0-1.08-3,4.65,4.65,0,0,0-3.14-1c-.46,0-.92,0-1.36,0a7.89,7.89,0,0,0-1.24.17,3.54,3.54,0,0,0-1.82.94,4.14,4.14,0,0,0-.82,1.79,11.12,11.12,0,0,0-.15,2.31c0,.22,0,.19,0,.31s0,.45,0,.76Zm1.1,4.87ZM149.83,9.81c0,2.33,0,5.25,0,7.7v.25h0a19.91,19.91,0,0,1,0,2.07c0,.29,0,.59,0,1V21h0a13.37,13.37,0,0,1-.34,3.73A6.52,6.52,0,0,1,148,27.46a6.15,6.15,0,0,1-2.82,1.62,10.52,10.52,0,0,1-1.4.29,12,12,0,0,1-1.49.12h-1a9.45,9.45,0,0,1-4.43-1.07,5.65,5.65,0,0,1-2.7-3.62,4.58,4.58,0,0,1-.11-.56L134,23.9a18.47,18.47,0,0,1-.16-3.32c0-.2,0-.4,0-.71a16.64,16.64,0,0,1,.27-3.49,5.67,5.67,0,0,1,1.65-3.11,7.59,7.59,0,0,1,.58-.49h0a4.43,4.43,0,0,1,.66-.42,8.76,8.76,0,0,1,1.37-.58,10.25,10.25,0,0,1,1.45-.35,8.44,8.44,0,0,1,1.08-.08c.57,0,1.2,0,1.53,0a14.69,14.69,0,0,1,2.14.25A3.87,3.87,0,0,1,146,12h0l.1,0,.2.07h0l.36.21V7c0-.29,0-.45,0-.6V5.79c0-1.12.27-1.32,1.84-1.29a1.45,1.45,0,0,1,1,.27h0a1.28,1.28,0,0,1,.32.78c0,.15,0,1.92,0,4.26ZM195.92,13a3.5,3.5,0,0,1-.07.82c-.18.69-.77.6-1.31.52h-.13a5.9,5.9,0,0,0-2.24.11,2.13,2.13,0,0,0-1.26.82,3.26,3.26,0,0,0-.44,1.11,8,8,0,0,0-.1,1.38v9.54c0,.81,0,1.25-.26,1.55s-.71.34-1.58.34a1.91,1.91,0,0,1-.78-.14.88.88,0,0,1-.5-.63c-.07-.38-.05-5.07,0-7.13V19.37a12.43,12.43,0,0,1,.55-4.91,4.64,4.64,0,0,1,2.52-2.57,8.79,8.79,0,0,1,3.58-.58,2,2,0,0,1,.57,0l.19,0h0c.59.09,1,.15,1.19.76a4.48,4.48,0,0,1,.06.83Zm-72.54-.23a3.74,3.74,0,0,1-.06.85c-.19.85-.47.82-1.35.74a9.7,9.7,0,0,0-1.46-.06,2.51,2.51,0,0,0-2.13.9,4.15,4.15,0,0,0-.58,2.32c0,.73,0,1.47,0,2.21v7.37h0v.18c0,1.64,0,1.9-1.6,1.9s-1.58-.32-1.56-1.74V27c0-1.2,0-2.14,0-3.09,0-2.17,0-4.39,0-6.45a8.62,8.62,0,0,1,.4-2.63,4.76,4.76,0,0,1,2.56-2.87,5,5,0,0,1,1.22-.42,12.4,12.4,0,0,1,2.9-.21c.71.06,1.31.25,1.51.69a2.08,2.08,0,0,1,.15.75Zm3.47,14.51a3.36,3.36,0,0,1-.42-1.18l-.09-.37h0c-.09-.4-.07-4.33,0-6.4V6.4c0-.23,0-.43,0-.6,0-1.13.27-1.33,1.83-1.3a1.46,1.46,0,0,1,1,.27h0a1.28,1.28,0,0,1,.31.78c.06.34,0,10,0,14.65v2.23c0,.15,0,.39,0,.64a5.9,5.9,0,0,0,.3,2.66,1.44,1.44,0,0,0,1.49.67c.52,0,1,0,1.16.48a2.68,2.68,0,0,1,.12.95,2.29,2.29,0,0,1-.18.91,1.14,1.14,0,0,1-.73.52h0a3.36,3.36,0,0,1-.92.11,5.17,5.17,0,0,1-1.66-.24,3.32,3.32,0,0,1-1.36-.79,4.24,4.24,0,0,1-.81-1.08Zm34.76-13a12.7,12.7,0,0,0-1.31.06,7.17,7.17,0,0,0-1.84.42,2.93,2.93,0,0,0-1.39,1.12,6.68,6.68,0,0,0-.64,3.73v1.2c0,2.51-.06,5.14,3.24,5.62a14.61,14.61,0,0,0,2.47.11,10.33,10.33,0,0,0,2.15-.27l.29-.08a2.78,2.78,0,0,1,.69-.15c.49,0,.81.18.86,1a2.76,2.76,0,0,1-.12,1.22,1.38,1.38,0,0,1-.89.71,13.25,13.25,0,0,1-8-.12,5.5,5.5,0,0,1-3.31-3.19,12.67,12.67,0,0,1-.62-4.59v-.66c0-2.75,0-5.36,2.26-7.35a6.33,6.33,0,0,1,1.24-.81,5.35,5.35,0,0,1,1.34-.51l.45-.1a9.82,9.82,0,0,1,3-.31,11.24,11.24,0,0,1,2.77.37,1.87,1.87,0,0,1,1.35,1,3.6,3.6,0,0,1,.06,1.19v.09c0,.72-.4.92-.87.9a3.46,3.46,0,0,1-.88-.23h0l-.25-.08a3.38,3.38,0,0,0-.6-.11l-.51-.07a5.69,5.69,0,0,0-1-.1Zm9.52,6.34a15.75,15.75,0,0,0,0,2c0,.16,0,.36.08.54a4.33,4.33,0,0,0,.45,1.65h0l0,0h0l0,.05h0l0,0h0l0,0h0l0,0,0,0,0,0,0,.06h0v0h0l0,0h0l0,0h0l0,0,0,0h0l0,0h0l0,0h0l0,0h0l0,0h0l0,0,0,0,0,0h0l0,0h0l0,0h0l0,0h0l0,0h0l0,0h0l0,0h0l0,0h0l0,0h0l.06,0h0l0,0,0,0,0,0h0l0,0h0l.05,0h0l.07,0h0l0,0h0l.07,0h0l0,0h0l.06,0h0l.07,0h0l.06,0h0l0,0h0l0,0h0l.05,0h0l0,0h0l.08,0h0l.06,0h0l.07,0,0,0,.06,0h.05l0,0h0l.07,0h.15l.06,0h.07l.06,0h0l.06,0h.17l.07,0h0l.11,0h.11l.24,0,.23,0h2.17l.08,0h.12l.07,0h0l.09,0h0l.08,0A3.17,3.17,0,0,0,180.12,25a4.92,4.92,0,0,0,.62-2.57v-4.2a4.12,4.12,0,0,0-1.08-3,4.62,4.62,0,0,0-3.14-1c-.45,0-.91,0-1.36,0a6,6,0,0,0-1.23.17,3.39,3.39,0,0,0-1.82.94,4.2,4.2,0,0,0-.83,1.79,10.51,10.51,0,0,0-.14,2.31v.31c0,.15,0,.44,0,.75ZM176,29.5h-.53A9.48,9.48,0,0,1,171,28.42a5.65,5.65,0,0,1-2.7-3.62c0-.21-.08-.38-.11-.56s0-.2-.06-.34a17.59,17.59,0,0,1-.16-3.32v-.71a16.65,16.65,0,0,1,.28-3.49,5.67,5.67,0,0,1,1.65-3.11,7.59,7.59,0,0,1,.58-.49h0a4.43,4.43,0,0,1,.66-.42,8.38,8.38,0,0,1,1.37-.58,9.93,9.93,0,0,1,1.45-.35,8.14,8.14,0,0,1,1.08-.08c.56,0,1.19,0,1.52,0a14.54,14.54,0,0,1,2.14.25,3.8,3.8,0,0,1,1.38.44l.11,0,.19.07h0l1,.59h0a3.62,3.62,0,0,1,.55.46c.21.21.42.44.55.6h0a6.7,6.7,0,0,1,.44.68,7.52,7.52,0,0,1,.34.71c0,.13.09.26.13.38l.13.43a12.32,12.32,0,0,1,.36,3.86c0,.29,0,.59,0,1V21h0a13.37,13.37,0,0,1-.34,3.73,6.56,6.56,0,0,1-1.46,2.74,6.11,6.11,0,0,1-2.82,1.62,9,9,0,0,1-1.41.29,12,12,0,0,1-1.49.12H176Zm30.34-15.16a6.59,6.59,0,0,0-2.4-.17l-.31,0a4.15,4.15,0,0,0-2.39.82,2.76,2.76,0,0,0-.76.94,3.55,3.55,0,0,0-.38,1.32c0,.25-.06.65-.08,1a4.68,4.68,0,0,0,0,.66h8.91c.08,0,.1.09.1.05a.57.57,0,0,0,0-.12c0-.07,0-.15,0-.26h0l0-.57h0a5.77,5.77,0,0,0-.23-1.31,2.76,2.76,0,0,0-.68-1.08,3.9,3.9,0,0,0-1.73-.92ZM212,17.75v0h0V18h0c0,.23,0,.46,0,.69s0,.46,0,.69c-.08,2.32-.36,2.31-2.55,2.25l-1.26,0h-6.47c-.57,0-1.15,0-1.7,0a9.77,9.77,0,0,0,.15,2.16,3.08,3.08,0,0,0,1,1.71,5,5,0,0,0,2.62,1,14.64,14.64,0,0,0,4.18-.15l.45-.07c.25,0,.49-.08.73-.14l.24-.06a5.24,5.24,0,0,1,1-.2,1.22,1.22,0,0,1,.77.12h0a1,1,0,0,1,.33.67,3.48,3.48,0,0,1,0,.74,2,2,0,0,1-.12.64,1.08,1.08,0,0,1-.41.5,2.49,2.49,0,0,1-.52.25,11.68,11.68,0,0,1-1.55.38,20,20,0,0,1-2,.3c-.43,0-.93.05-1.42.05s-1,0-1.42,0a11.09,11.09,0,0,1-2.47-.41,7.27,7.27,0,0,1-2-.88c-2.72-1.86-2.7-4.86-2.67-7.83v-.82c0-.48,0-.9,0-1.31s.07-.81.14-1.25A7.23,7.23,0,0,1,198,14.2a5.46,5.46,0,0,1,2.21-2,10.24,10.24,0,0,1,5.2-.89A7.83,7.83,0,0,1,209.89,13a5.62,5.62,0,0,1,1.3,1.65,6.82,6.82,0,0,1,.68,2.1l.06.44h0c0,.14,0,.29,0,.44v0h0v.07h0Z"/><path id="Exchange" class="cls-1" d="M102,44c.5,0,.63-.13.63-.63v-.13c0-.5-.13-.63-.63-.63H98.49V40.82c0-.35.18-.53.55-.53h3.54c.5,0,.63-.13.63-.63v-.13c0-.5-.13-.63-.63-.63h-4c-1.12,0-1.6.48-1.6,1.6v5.9c0,1.12.48,1.6,1.6,1.6h4c.5,0,.63-.13.63-.63v-.13c0-.5-.13-.63-.63-.63H99c-.37,0-.55-.18-.55-.53V44Zm16.06-5.1a.89.89,0,0,0-1,.66l-1,2.1c-.32.71-.44.85-.79.85s-.49-.14-.82-.85l-.95-2.1a.9.9,0,0,0-1-.66h-.18c-.58,0-.67.11-.41.66l1.28,2.6a2.2,2.2,0,0,0,.79,1,2.07,2.07,0,0,0-.81,1l-1.54,3.12c-.26.55-.19.66.41.66h.18a.93.93,0,0,0,1-.66l1.21-2.6a4.33,4.33,0,0,1,.4-.72.58.58,0,0,1,.42-.15.52.52,0,0,1,.39.15,3.21,3.21,0,0,1,.4.72l1.22,2.6a.92.92,0,0,0,1,.66h.19c.61,0,.68-.11.41-.66l-1.55-3.12a2,2,0,0,0-.83-1,1.33,1.33,0,0,0,.57-.58,4.33,4.33,0,0,0,.24-.46l1.29-2.6c.27-.55.2-.66-.41-.66Zm10.6,3.51c0-1.55.65-2.26,2.22-2.26a4.91,4.91,0,0,1,1.81.32c.46.17.57,0,.57-.46V39.8c0-.45-.08-.52-.59-.73a4.52,4.52,0,0,0-1.76-.3c-2.51,0-3.77,1.22-3.77,3.64v2.24c0,2.43,1.25,3.5,3.77,3.5a5,5,0,0,0,1.82-.28c.41-.15.57-.29.57-.72v-.21c0-.45-.26-.59-.56-.47a4.56,4.56,0,0,1-1.8.3c-1.7,0-2.28-.76-2.28-2.12Zm18.45,1.49v3.46c0,.51.12.64.64.64H148c.52,0,.65-.13.65-.64V39.54c0-.51-.13-.64-.65-.64h-.18c-.52,0-.64.13-.64.64v3h-3.81v-3c0-.51-.13-.64-.64-.64h-.19c-.51,0-.64.13-.64.64v7.82c0,.51.13.64.64.64h.19c.51,0,.64-.13.64-.64V43.9Zm16.25-2.77,1.72,6.25c.13.49.05.62-.47.62h-.2c-.52,0-.66-.13-.81-.62l-.52-1.9h-3.93l-.52,1.9c-.15.49-.29.62-.81.62h-.2c-.52,0-.6-.13-.47-.62l1.72-6.25a5,5,0,0,1,.8-1.85,1.81,1.81,0,0,1,1.45-.51,1.76,1.76,0,0,1,1.44.51A5,5,0,0,1,163.38,41.13Zm-3,0-.82,3h3.23l-.82-3c-.23-.83-.34-1-.79-1S160.57,40.27,160.34,41.1Zm13.16,6.26c0,.51.13.64.65.64h.14c.52,0,.64-.13.64-.64V40.5c0-.33.1-.49.28-.49s.28.08.38.46l1.74,6.12c.33,1.16.75,1.55,1.77,1.55s1.6-.49,1.6-1.85V39.54c0-.51-.13-.64-.64-.64h-.14c-.52,0-.65.13-.65.64v6.89c0,.31-.1.46-.28.46s-.26-.07-.36-.39l-1.77-6.26c-.32-1.12-.71-1.48-1.7-1.48-1.17,0-1.66.5-1.66,1.85Zm21.37-1.28a.57.57,0,0,1-.49.65,6.29,6.29,0,0,1-.77,0c-2,0-2.63-.72-2.63-2.07V42.46c0-1.67.7-2.31,2.59-2.31a5.49,5.49,0,0,1,2,.35c.45.15.56,0,.56-.47v-.21c0-.46-.06-.53-.55-.71a5.79,5.79,0,0,0-2-.34c-2.8,0-4.09,1.33-4.09,3.59V44.6c0,2.53,1.24,3.55,4.16,3.55a6.67,6.67,0,0,0,1.19-.09c1.11-.19,1.44-.73,1.44-2V43.53c0-.5-.12-.63-.63-.63h-.12c-.51,0-.63.13-.63.63ZM210,44c.5,0,.63-.13.63-.63v-.13c0-.5-.13-.63-.63-.63h-3.53V40.82c0-.35.18-.53.55-.53h3.54c.5,0,.63-.13.63-.63v-.13c0-.5-.13-.63-.63-.63h-4c-1.12,0-1.6.48-1.6,1.6v5.9c0,1.12.48,1.6,1.6,1.6h4c.5,0,.63-.13.63-.63v-.13c0-.5-.13-.63-.63-.63H207c-.37,0-.55-.18-.55-.53V44Z"/></g></svg>