<svg xmlns="http://www.w3.org/2000/svg" viewBox="0 0 174.87 174.87"><defs><style>.cls-1{fill:#ed1c24;}.cls-2{fill:#fbb040;}.cls-3{fill:#f7941e;}.cls-4{fill:#f15a29;}</style></defs><title>graph-use-of-funds</title><g id="Layer_2" data-name="Layer 2"><g id="contenido_A" data-name="contenido A"><path class="cls-1" d="M87.43,143.78a56.35,56.35,0,0,1-.14-112.69V0A93,93,0,0,0,75.15.85,87.43,87.43,0,0,0,99.44,174l-4.32-30.77A55.58,55.58,0,0,1,87.43,143.78Z"/><path class="cls-2" d="M95.12,143.24,99.44,174c22.91-3.23,41.12-13.55,55.68-31.56l-24-19.45A56.28,56.28,0,0,1,95.12,143.24Z"/><path class="cls-3" d="M165.74,49.1,138,62.64a56.38,56.38,0,0,1-6.9,60.36l24,19.45C177,115.43,181,80.35,165.74,49.1Z"/><path class="cls-4" d="M87.43,31.09A56.35,56.35,0,0,1,138,62.64l27.7-13.54C150.53,17.86,122,0,87.29,0V31.09Z"/></g></g></svg>