<svg id="Layer_1" data-name="Layer 1" xmlns="http://www.w3.org/2000/svg" viewBox="0 0 120 120"><title>icon-passport-step-3</title><path d="M119.74,86.93a1.56,1.56,0,0,0-1.27-.67h-9V22.61a1.53,1.53,0,0,0-1.53-1.53H12.07a1.53,1.53,0,0,0-1.53,1.53V86.26h-9a1.56,1.56,0,0,0-1.27.67,1.55,1.55,0,0,0-.15,1.43l3.83,9.58a1.53,1.53,0,0,0,1.42,1H114.64a1.53,1.53,0,0,0,1.42-1l3.83-9.58A1.55,1.55,0,0,0,119.74,86.93Zm-6.13,8.92H6.39L3.78,89.32H48.9a1.53,1.53,0,0,0,0-3.06H13.6V24.13h92.8V86.26H71.58a1.53,1.53,0,0,0,0,3.06h44.64Z"/><path d="M61.92,86.26H58.08a1.53,1.53,0,0,0,0,3.06h3.84a1.53,1.53,0,0,0,0-3.06Z"/><path d="M86.34,77.74a1.52,1.52,0,0,0-.86-2C82.13,74.45,73.24,71.38,69,70.08v-.32A7.19,7.19,0,0,1,69.84,67a18.33,18.33,0,0,0,1.42-4.67,12.75,12.75,0,0,0,2-5.18c.54-2.72.26-3.86-.12-4.88,0,0,0,0,0-.09a30.14,30.14,0,0,1,.45-5.09,11.93,11.93,0,0,0-2.48-8.76c-1.51-2-4.42-4.38-9.74-4.72H58.71a12.59,12.59,0,0,0-9.57,4.71,12.13,12.13,0,0,0-2.48,8.76,29.22,29.22,0,0,1,.47,5.07c0,.07,0,.08,0,.08-.47,1.18-.64,2.37-.14,4.91a13,13,0,0,0,2,5.18A19.87,19.87,0,0,0,50.42,67a6.9,6.9,0,0,1,.41,2.82v.33c-4.32,1.33-13.17,4.46-16.32,5.74a1.52,1.52,0,0,0,.57,2.94,1.44,1.44,0,0,0,.57-.11c3.29-1.33,12.86-4.71,16.83-5.88a2.05,2.05,0,0,0,1.39-2.17,13.56,13.56,0,0,0,6.34,1.76A12.3,12.3,0,0,0,66,70.89a2,2,0,0,0,1.45,1.91c3.76,1.12,13.4,4.43,16.89,5.81A1.53,1.53,0,0,0,86.34,77.74Zm-18-16.25a15.51,15.51,0,0,1-1.22,4.21q-.25.55-.48,1.14a10.05,10.05,0,0,1-6.38,2.53,12,12,0,0,1-6.63-2.5,6.28,6.28,0,0,0-.39-1.18A16.28,16.28,0,0,1,52,61.48a1.48,1.48,0,0,0-.34-.79A9,9,0,0,1,50,56.54c-.43-2.16-.21-2.72,0-3.21,0,0,.1-.27.11-.31l.06-.21a26.56,26.56,0,0,0-.45-6.28,9.09,9.09,0,0,1,1.88-6.35,9.6,9.6,0,0,1,7.26-3.53h2.47c4.09.26,6.29,2.06,7.43,3.54a9,9,0,0,1,1.88,6.35,27.73,27.73,0,0,0-.45,6.19,1.93,1.93,0,0,0,.18.58c.19.53.41,1.13,0,3.24a9,9,0,0,1-1.65,4.14A1.55,1.55,0,0,0,68.29,61.49Z"/><path d="M81.28,47h15a1.53,1.53,0,1,0,0-3.06h-15a1.53,1.53,0,0,0,0,3.06Z"/><path d="M81.28,54.27H99.49a1.53,1.53,0,0,0,0-3.06H81.28a1.53,1.53,0,0,0,0,3.06Z"/><path d="M81.28,61.57h9.11a1.53,1.53,0,0,0,0-3.06H81.28a1.53,1.53,0,0,0,0,3.06Z"/></svg>