<?xml version="1.0" encoding="utf-8"?>
<!-- Generator: Adobe Illustrator 22.0.0, SVG Export Plug-In . SVG Version: 6.00 Build 0)  -->
<svg version="1.1" xmlns="http://www.w3.org/2000/svg" xmlns:xlink="http://www.w3.org/1999/xlink" x="0px" y="0px"
	 viewBox="0 0 151 28" style="enable-background:new 0 0 151 28;" xml:space="preserve">
<style type="text/css">
	.st0{fill:#FFFFFF;}
	.st1{fill:#D3DC0F;}
</style>
<g id="Layer_2">
</g>
<g id="Layer_1">
	<g>
		<path class="st0" d="M40,12.4c-1,0-1.9,0.2-2.6,0.7c-0.8,0.4-1.4,1.1-1.8,1.9c-0.4,0.8-0.7,1.7-0.7,2.8c0,1,0.2,2,0.6,2.8
			c0.4,0.8,1,1.4,1.8,1.9c0.8,0.4,1.6,0.7,2.6,0.7s1.8-0.2,2.6-0.5s1.4-0.8,1.9-1.4l1.5,1.5c-0.7,0.9-1.6,1.5-2.6,2
			c-1.1,0.5-2.2,0.7-3.6,0.7c-1.5,0-2.8-0.3-3.9-1c-1.1-0.6-2-1.5-2.7-2.7c-0.6-1.2-1-2.5-1-4s0.3-2.8,1-4c0.6-1.2,1.5-2.1,2.7-2.7
			c1.1-0.6,2.4-1,3.9-1c1.3,0,2.4,0.2,3.4,0.6c1,0.4,1.9,1,2.6,1.7l-1.5,1.8C43.2,13,41.7,12.4,40,12.4"/>
		<path class="st0" d="M52.3,4.6c0.3,0.3,0.5,0.7,0.5,1.2S52.5,6.7,52.3,7S51.5,7.5,51,7.5S50.2,7.3,49.8,7
			c-0.3-0.3-0.5-0.7-0.5-1.2s0.2-0.9,0.5-1.2c0.3-0.3,0.7-0.5,1.2-0.5S52,4.3,52.3,4.6 M49.8,10.2h2.7v15.1h-2.7V10.2z"/>
		<path class="st0" d="M64.8,24.3c-1.2,0.7-2.3,1.1-3.5,1.1s-2.2-0.4-3-1.3c-0.8-0.8-1.1-2-1.1-3.6V6.6h2.7v4.1h4.7v2h-4.7V20
			c0,1.9,0.6,2.9,1.9,2.9c0.7,0,1.5-0.2,2.3-0.7L64.8,24.3z"/>
		<path class="st0" d="M78.1,11.1c1.2,0.6,2.1,1.5,2.7,2.7c0.7,1.2,1,2.5,1,4s-0.3,2.8-1,4s-1.6,2.1-2.7,2.7c-1.2,0.6-2.5,1-4,1
			s-2.9-0.3-4-1c-1.2-0.6-2.1-1.5-2.7-2.7c-0.7-1.2-1-2.5-1-4s0.3-2.8,1-4s1.6-2,2.7-2.7c1.2-0.6,2.5-1,4-1S76.8,10.4,78.1,11.1
			 M71.4,13.1c-0.8,0.5-1.4,1.1-1.8,1.9c-0.4,0.8-0.6,1.7-0.6,2.8c0,1,0.2,2,0.6,2.8s1,1.4,1.8,1.9c0.8,0.4,1.6,0.7,2.6,0.7
			s1.8-0.2,2.6-0.7c0.8-0.4,1.4-1.1,1.8-1.9c0.4-0.8,0.6-1.7,0.6-2.8c0-1-0.2-1.9-0.6-2.8c-0.4-0.8-1-1.4-1.8-1.9
			c-0.8-0.5-1.6-0.7-2.6-0.7S72.2,12.6,71.4,13.1"/>
		<path class="st0" d="M108.3,22.2c-0.5,1-1.3,1.8-2.3,2.4c-1,0.6-2.1,0.8-3.4,0.8c-1.2,0-2.3-0.3-3.4-0.9c-1.1-0.6-1.9-1.3-2.4-2.3
			c-0.5,0.9-1.3,1.7-2.4,2.3s-2.2,0.9-3.4,0.9c-1.3,0-2.4-0.3-3.4-0.8c-1-0.6-1.8-1.3-2.3-2.4c-0.6-1-0.8-2.2-0.8-3.5V9.9h4.4v8.6
			c0,0.9,0.3,1.6,0.8,2.1s1.2,0.8,2.1,0.8c0.9,0,1.6-0.3,2.1-0.8s0.8-1.2,0.8-2.1V9.9H99v8.6c0,0.9,0.3,1.6,0.8,2.1s1.3,0.8,2.2,0.8
			c0.8,0,1.5-0.3,2-0.8s0.8-1.2,0.8-2.1V9.9h4.4v8.8C109.2,20.1,108.8,21.2,108.3,22.2"/>
		<path class="st0" d="M116.8,3.8c0.4,0.5,0.7,1,0.7,1.8c0,0.7-0.2,1.3-0.7,1.8c-0.4,0.5-1,0.7-1.7,0.7s-1.3-0.2-1.7-0.7
			c-0.4-0.5-0.7-1.1-0.7-1.8s0.2-1.3,0.7-1.8c0.4-0.5,1-0.7,1.7-0.7S116.3,3.3,116.8,3.8 M112.8,9.9h4.4v15.3h-4.4V9.9z"/>
		<path class="st0" d="M128.6,13.3c-0.8-0.3-1.6-0.4-2.2-0.4c-0.5,0-1,0.1-1.3,0.3s-0.5,0.5-0.5,0.9s0.2,0.7,0.7,1
			c0.4,0.2,1.2,0.5,2.1,0.8c1.1,0.3,2,0.6,2.7,1c0.7,0.3,1.3,0.8,1.8,1.4c0.5,0.6,0.8,1.4,0.8,2.4c0,1.5-0.6,2.7-1.8,3.6
			c-1.2,0.8-2.7,1.3-4.5,1.3c-1.3,0-2.5-0.2-3.6-0.6c-1.2-0.4-2.2-0.9-3-1.6l1.4-3c0.8,0.6,1.6,1.1,2.6,1.4c1,0.3,1.9,0.5,2.7,0.5
			c0.6,0,1.1-0.1,1.4-0.3c0.4-0.2,0.5-0.5,0.5-0.9s-0.2-0.8-0.7-1c-0.4-0.2-1.2-0.5-2.2-0.8s-1.9-0.6-2.6-0.9
			c-0.7-0.3-1.3-0.8-1.8-1.4c-0.5-0.6-0.7-1.4-0.7-2.4c0-1.5,0.6-2.7,1.7-3.5s2.6-1.3,4.3-1.3c1,0,2.1,0.1,3.1,0.4
			c1,0.3,2,0.7,2.9,1.3l-1.5,3C130.3,13.9,129.4,13.6,128.6,13.3"/>
		<path class="st0" d="M145.1,21.5c0.7-0.3,1.3-0.8,1.9-1.5l2.5,2.3c-1.8,2.1-4.1,3.1-6.9,3.1c-1.6,0-3-0.3-4.3-1
			c-1.2-0.7-2.2-1.6-2.9-2.8c-0.7-1.2-1-2.5-1-4.1c0-1.5,0.3-2.9,1-4.1c0.7-1.2,1.6-2.1,2.8-2.8c1.2-0.7,2.6-1,4.2-1
			c2.2,0,4,0.6,5.4,1.9c1.4,1.3,2.1,3,2.2,5.2l-10.6,2.8c0.3,0.7,0.8,1.3,1.4,1.7s1.4,0.6,2.2,0.6C143.6,22,144.4,21.8,145.1,21.5
			 M139.9,14c-0.6,0.7-1,1.7-1.1,3l6.7-1.8c-0.5-1.4-1.5-2.2-3-2.2C141.4,13,140.6,13.4,139.9,14"/>
		<path class="st1" d="M17.3,21.8c0-3,2.4-5.4,5.4-5.4s5.4,2.4,5.4,5.4s-2.4,5.4-5.4,5.4C19.8,27.2,17.3,24.8,17.3,21.8"/>
		<path class="st1" d="M4.3,16.6c-1.4,0.3-2.7,1.1-3.5,2.5c-1.5,2.5-0.7,5.8,1.8,7.4C5,28,8.3,27.2,10,24.7c0.8-1.3,1-2.8,0.6-4.2
			l-0.1-0.3v-0.1c-0.3-1,0.1-2.8,1.2-4.7c0.9-1.5,2-2.9,3-3.1c0.3-0.1,0.7-0.1,1-0.1C17,11.9,18.3,11,19,9.8
			c1.5-2.5,0.7-5.8-1.8-7.4c-2.5-1.5-5.8-0.7-7.4,1.8C9,5.5,8.8,7,9.2,8.3c0.1,0.3,0.2,0.6,0.3,0.9c0.3,1-0.4,2.6-1.3,4.1
			c-1.1,1.8-2.5,3.1-3.6,3.2H4.5"/>
	</g>
</g>
</svg>
