<svg xmlns="http://www.w3.org/2000/svg" viewBox="0 0 112.07 112.08"><defs><style>.cls-1{fill:#414042;}</style></defs><title>logo-bitnation-round</title><g id="Layer_2" data-name="Layer 2"><g id="contenido_A" data-name="contenido A"><path class="cls-1" d="M56,112.08A56.29,56.29,0,0,1,0,55.28,55.87,55.87,0,0,1,56.69,0c30.54.32,55.38,25.32,55.38,55.74a56.32,56.32,0,0,1-56,56.34H56ZM56.07,6.36a49.58,49.58,0,0,0-35.3,84.52A49.21,49.21,0,0,0,56,105.72h.1a49.68,49.68,0,0,0,.56-99.36Z"/><path class="cls-1" d="M48.91,52.91c.47.34,1,.64,1.57,1,0-.46.05-.7.05-.94,0-4.57,0-9.14.09-13.71,0-1.76.05-3.53.24-5.28a4.75,4.75,0,0,1,4.86-4.4,4.75,4.75,0,0,1,5.22,4.17,10,10,0,0,1,.16,1.63c0,6.1,0,12.19,0,18.56,1.16-.77,2.16-1.4,3.11-2.07a7.43,7.43,0,0,0,3.3-6.29c0-3.62.11-7.25.09-10.87a11.54,11.54,0,0,0-1.7-6.44,10.85,10.85,0,0,0-8.72-4.9C50.24,22.8,44.44,27,44.45,34.6c0,3.26,0,6.52,0,9.78a15.42,15.42,0,0,0,.15,2.36A9.35,9.35,0,0,0,48.91,52.91Z"/><path class="cls-1" d="M57.13,40.83H55.39c-2,0-2.46.51-2.46,2.51V70.66c0,.24,0,.49,0,.73a1.78,1.78,0,0,0,1.82,1.78c.7,0,1.4,0,2.1,0,1.6,0,2.21-.62,2.22-2.19V57q0-7.09,0-14.17A1.75,1.75,0,0,0,57.13,40.83Z"/><path class="cls-1" d="M67.62,72.14a30.22,30.22,0,0,0-.73-6.31A6.78,6.78,0,0,0,61.1,61v1.64c0,5.18,0,10.35,0,15.53a11.61,11.61,0,0,1-.69,3.73,4.39,4.39,0,0,1-4.58,2.79c-2.05-.07-3.74-.86-4.41-2.91a13.42,13.42,0,0,1-.66-3.92c-.05-4.57,0-9.13.06-13.7V60.51c-3.57,1.14-6.21,4.29-6.3,7.64-.11,4.38-.1,8.76,0,13.14a8.87,8.87,0,0,0,3.46,6.87,13.59,13.59,0,0,0,15.55.43,9,9,0,0,0,4-7C67.62,78.46,67.7,75.3,67.62,72.14Z"/></g></g></svg>