<svg xmlns="http://www.w3.org/2000/svg" viewBox="0 0 10 16.5"><defs><style>.cls-1{fill:#fff;}</style></defs><title>Chain</title><g id="Layer_2" data-name="Layer 2"><g id="contenido_2" data-name="contenido 2"><path class="cls-1" d="M6.33,16.5V10.6c0-.1,0-.21,0-.31a.77.77,0,0,0-.78-.77H4.64c-.69,0-.95.27-1,1v6Z"/><path class="cls-1" d="M6.33,0V5.89C6.33,6.75,6.11,7,5.27,7,5,7,4.77,7,4.52,7a.75.75,0,0,1-.83-.86q0-3,0-6.11Z"/><path class="cls-1" d="M2.81,10c0-2.63,0-5.25,0-8-.5.33-.93.61-1.35.9A3.23,3.23,0,0,0,0,5.59c0,1.56,0,3.13,0,4.69a5,5,0,0,0,.74,2.78,4.45,4.45,0,0,0,2.1,1.74V10.47A3.87,3.87,0,0,1,2.81,10Z"/><path class="cls-1" d="M7.34,14.71A4.55,4.55,0,0,0,10,10.34c0-1.41,0-2.81,0-4.22a7,7,0,0,0-.06-1A4.07,4.07,0,0,0,8.07,2.44L7.39,2c0,.2,0,.3,0,.4l0,4.14h0Z"/></g></g></svg>