<svg viewBox="0 0 10 16.5" xmlns="http://www.w3.org/2000/svg"><g fill="#fff"><path d="m6.33 16.5v-5.9c0-.1 0-.21 0-.31a.77.77 0 0 0 -.78-.77h-.91c-.69 0-.95.27-1 1v6z"/><path d="m6.33 0v5.89c0 .86-.22 1.11-1.06 1.11-.27 0-.5 0-.75 0a.75.75 0 0 1 -.83-.86q0-3 0-6.11z"/><path d="m2.81 10c0-2.63 0-5.25 0-8-.5.33-.93.61-1.35.9a3.23 3.23 0 0 0 -1.46 2.69v4.69a5 5 0 0 0 .74 2.78 4.45 4.45 0 0 0 2.1 1.74v-4.33a3.87 3.87 0 0 1 -.03-.47z"/><path d="m7.34 14.71a4.55 4.55 0 0 0 2.66-4.37c0-1.41 0-2.81 0-4.22a7 7 0 0 0 -.06-1 4.07 4.07 0 0 0 -1.87-2.68l-.68-.44v.4 4.14z"/></g></svg>