<svg viewBox="0 0 177.01 177.01" xmlns="http://www.w3.org/2000/svg"><path d="m31.47 88.5a57 57 0 0 1 57-57v-31.5a86.25 86.25 0 0 0 -48.2 14.27 88.46 88.46 0 0 0 -26 122.39l26.37-17.13a56.7 56.7 0 0 1 -9.17-31.03z" fill="#ed1c24"/><path d="m88.5 145.54a57 57 0 0 1 -47.84-26l-26.37 17.12c19.16 29.5 51.71 44.34 86.54 39.42l-4.38-31.08a57.89 57.89 0 0 1 -7.95.54z" fill="#fbb040"/><path d="m132.18 51.84a57 57 0 0 1 -35.73 93.16l4.38 31.1c17.42-2.44 31.08-8.53 44.56-19.83a88.46 88.46 0 0 0 10.91-124.67z" fill="#f7941e"/><path d="m132.18 51.84 24.12-20.24c-17.59-20.95-40.42-31.6-67.79-31.6v31.47a56.89 56.89 0 0 1 43.67 20.37z" fill="#f15a29"/></svg>