<svg viewBox="0 0 174.87 174.87" xmlns="http://www.w3.org/2000/svg"><path d="m87.43 143.78a56.35 56.35 0 0 1 -.14-112.69v-31.09a93 93 0 0 0 -12.14.85 87.43 87.43 0 0 0 24.29 173.15l-4.32-30.77a55.58 55.58 0 0 1 -7.69.55z" fill="#ed1c24"/><path d="m95.12 143.24 4.32 30.76c22.91-3.23 41.12-13.55 55.68-31.56l-24-19.45a56.28 56.28 0 0 1 -36 20.25z" fill="#fbb040"/><path d="m165.74 49.1-27.74 13.54a56.38 56.38 0 0 1 -6.9 60.36l24 19.45c21.9-27.02 25.9-62.1 10.64-93.35z" fill="#f7941e"/><path d="m87.43 31.09a56.35 56.35 0 0 1 50.57 31.55l27.7-13.54c-15.17-31.24-43.7-49.1-78.41-49.1v31.09z" fill="#f15a29"/></svg>