<svg id="Layer_1" data-name="Layer 1" xmlns="http://www.w3.org/2000/svg" viewBox="0 0 120 120"><title>icon-passport-step-1</title><path d="M60,0a60,60,0,1,0,60,60A60.07,60.07,0,0,0,60,0Zm0,116.68A56.68,56.68,0,1,1,116.68,60,56.75,56.75,0,0,1,60,116.68Z"/><path d="M103.35,60A43.35,43.35,0,1,0,60,103.35,43.39,43.39,0,0,0,103.35,60ZM60,101.69A41.7,41.7,0,1,1,101.69,60,41.73,41.73,0,0,1,60,101.69Z"/><path d="M60.61,42.85c0,.13,0,.26,0,.39,0,1.2.07,2.4.08,3.6a2.83,2.83,0,0,1-.14.87,1,1,0,0,1-1.05.68,1,1,0,0,1-1-.65,3.18,3.18,0,0,1-.17-.91c0-1.06,0-2.12-.07-3.18,0-.28,0-.56,0-.86a2.06,2.06,0,0,0-1.42,1.82c0,1,0,2,.07,3a2,2,0,0,0,.85,1.57,3.14,3.14,0,0,0,3.61,0,2.1,2.1,0,0,0,.88-1.65c0-.72,0-1.46,0-2.2a6.5,6.5,0,0,0-.2-1.46A1.57,1.57,0,0,0,60.61,42.85Z"/><path d="M56.69,39.63a2.16,2.16,0,0,0,1,1.41l.37.23c0-.11,0-.17,0-.22q0-1.59-.06-3.18c0-.42,0-.83,0-1.23a1.09,1.09,0,0,1,1.1-1,1.11,1.11,0,0,1,1.24.94,1.5,1.5,0,0,1,0,.37c0,1.42.07,2.83.11,4.31.27-.18.5-.33.71-.49A1.74,1.74,0,0,0,62,39.24c0-.84,0-1.69,0-2.53a2.85,2.85,0,0,0-.44-1.48,2.75,2.75,0,0,0-4.95,1.58c0,.75,0,1.52,0,2.27A2.56,2.56,0,0,0,56.69,39.63Z"/><path d="M58.77,45.31a.41.41,0,0,0,.43.4h.49c.37,0,.51-.15.5-.52,0-1.08,0-2.17-.07-3.25s-.06-2.2-.08-3.29c0-.31-.16-.46-.47-.45h-.4c-.46,0-.57.14-.56.6l.15,6.35A1,1,0,0,0,58.77,45.31Z"/><path d="M55.06,62.63a1.5,1.5,0,0,0,.4-.2,1.24,1.24,0,0,0,.25-1.74A6.68,6.68,0,0,0,53.56,59a9.2,9.2,0,0,0-10.34,1.19,1.23,1.23,0,0,0-.14,1.74,1.25,1.25,0,0,0,.92.43,6.17,6.17,0,0,0,3.75,1.76c.69.06,1.39.1,2.1.1a11.72,11.72,0,0,0,2.95-.34A4.24,4.24,0,0,0,55.06,62.63Zm-7.21.23a5.22,5.22,0,0,1-2.66-1.1,6.67,6.67,0,0,1,7.18-.62,4.08,4.08,0,0,1,1.35,1,4.44,4.44,0,0,1-1.24.47A14.05,14.05,0,0,1,47.85,62.86Z"/><path d="M74.14,59a9.19,9.19,0,0,0-10.33,1.19,1.24,1.24,0,0,0-.15,1.74,1.3,1.3,0,0,0,.85.43,5.9,5.9,0,0,0,3.82,1.93c.69.06,1.39.11,2.1.11a10.63,10.63,0,0,0,3-.37,4,4,0,0,0,2.38-1.42,1.28,1.28,0,0,0,.28-.15,1.26,1.26,0,0,0,.24-1.74A6.35,6.35,0,0,0,74.14,59Zm-1.09,3.84a13.22,13.22,0,0,1-4.62.22,4.94,4.94,0,0,1-2.73-1.22A6.69,6.69,0,0,1,73,61.14a4.18,4.18,0,0,1,1.36,1l.06.07A3.86,3.86,0,0,1,73.05,62.81Z"/><path d="M67.48,79.73s0-.06,0-.08a.25.25,0,0,0,0-.09l0-.08a.56.56,0,0,1-.05-.08.18.18,0,0,1,0-.07l-.06-.06-.07-.07-.07,0L67,79.1l-.08,0-.08,0h-.09l-.09,0a5.45,5.45,0,0,1-2.34-1.56c-1.32-1.17-3-2.64-4.92-1.76a.89.89,0,0,0-.33.27.92.92,0,0,0-.84-.7c-1.73-.13-2.91.91-3.94,1.82a5.35,5.35,0,0,1-2.11,1.37h0a.16.16,0,0,0-.09,0,.11.11,0,0,0-.08,0l-.08,0-.08,0-.06.06-.07.06,0,.07-.05.07,0,.08a.94.94,0,0,0,0,.09l0,.08s0,.06,0,.09a.25.25,0,0,0,0,.08.38.38,0,0,0,0,.1v0a.19.19,0,0,0,0,.07v.09l0,.07a.63.63,0,0,1,0,.09.16.16,0,0,0,0,.07s0,0,0,.08l.05.06.06.06a.17.17,0,0,0,.06.06.1.1,0,0,1,0,0,.81.81,0,0,0,.33.14l.06,0h.22a3.82,3.82,0,0,1,2.45,1.21,5.69,5.69,0,0,0,3.56,1.65h.29a.94.94,0,0,0,.86-1,.93.93,0,0,0-1-.85,3.45,3.45,0,0,1-2.27-1c.49,0,1,0,1.48,0h.33a13.65,13.65,0,0,1,4.38.26,5,5,0,0,0,.71.11.93.93,0,0,0,.82,1.66,8.09,8.09,0,0,0,1.2-.71,5.68,5.68,0,0,1,1.25-.73h.24a.93.93,0,0,0,.62-.47h0a.25.25,0,0,0,0-.09l0-.07a.25.25,0,0,0,0-.08l0-.08s0,0,0,0h0v-.18ZM61.13,78a1,1,0,0,1-.73.62A.47.47,0,0,0,60,79H59.6a.47.47,0,0,0-.39-.35.67.67,0,0,1-.44-.2.27.27,0,0,1,0-.24.47.47,0,0,0-.34-.56.46.46,0,0,0-.56.35,1.3,1.3,0,0,0,0,.75c-.73,0-1,0-1.1-.33a.47.47,0,0,0-.89.27l.07.19a.82.82,0,0,0-.49-.34l.07-.05c1-.89,1.65-1.42,2.57-1.36a1.76,1.76,0,0,0,.33,0,2.49,2.49,0,0,0,.72.14.93.93,0,0,0,1,.17,1.51,1.51,0,0,1,1.51.3A.46.46,0,0,0,61.13,78Zm1.26.71a.7.7,0,0,0-.52.45l-.4-.06a1.94,1.94,0,0,0,.53-.78.44.44,0,0,0-.06-.43c.28.21.57.45.89.74A2.14,2.14,0,0,0,62.39,78.67Z"/><path d="M85.58,59.48a3,3,0,0,0-2.09-.57c2.56-9.27,1.11-17-4.34-23.11-4.14-4.62-10-9.92-18.68-9.92h-.13c-7,0-13.18,3.16-18.91,9.53C34.64,43,35,52.12,36.72,58.93a3.08,3.08,0,0,0-2.29.55c-.68.52-1.43,1.6-1.14,3.83A6.14,6.14,0,0,0,35,66.65a8.83,8.83,0,0,1,1.3,1.91,28.28,28.28,0,0,1,1.07,2.66c.79,2.18,1.27,3.5,2.4,3.79a1.55,1.55,0,0,0,.37,0,1.3,1.3,0,0,0,.52-.1A46.58,46.58,0,0,0,44,83.42c3.77,7.1,9.14,10.7,16,10.7h0c6.8,0,12.2-3.62,16-10.76A46,46,0,0,0,79.43,75a1.61,1.61,0,0,0,.48.08,1.5,1.5,0,0,0,.37,0c1.14-.29,1.61-1.61,2.41-3.79a25.85,25.85,0,0,1,1.06-2.66,9.61,9.61,0,0,1,1.3-1.91,6,6,0,0,0,1.66-3.34C87,61.08,86.25,60,85.58,59.48Zm-47.1,8a11.67,11.67,0,0,0-1.62-2.39A3.81,3.81,0,0,1,35.75,63c-.13-1,0-1.44.19-1.54a1.15,1.15,0,0,1,1,.07,1.24,1.24,0,0,0,.56.09c.27,1.06.54,2.34.84,3.76.22,1,.45,2.14.7,3.28C38.83,68.25,38.66,67.85,38.48,67.47Zm42.28-8c-.41,1.33-.81,3.12-1.26,5.19-2.24,10.11-6,27-19.53,27v1.23l0-1.23c-13.57,0-17.12-16.78-19.23-26.79-.43-2-.81-3.82-1.2-5.14-1.89-6.31-2.77-15.37,3.76-22.64,5.24-5.84,10.83-8.69,17.09-8.73h.11c7.69,0,13,4.87,16.84,9.11C82.45,43.18,83.57,50.37,80.76,59.44ZM84.26,63a3.82,3.82,0,0,1-1.12,2.09,11.68,11.68,0,0,0-1.61,2.39l-.26.54c.23-1,.45-1.94.65-2.84.29-1.33.55-2.54.82-3.57a1.44,1.44,0,0,0,.38-.08,1.16,1.16,0,0,1,.95-.07C84.2,61.55,84.38,62,84.26,63Z"/><path d="M60.31,84.91c-.76-.09-1.47-.15-2.24-.19a.63.63,0,0,0-.65.59A.62.62,0,0,0,58,86c.74,0,1.42.09,2.16.18h.07a.64.64,0,0,0,.62-.56A.62.62,0,0,0,60.31,84.91Z"/><path d="M76.71,56.7C74,55,67.58,51.08,63.14,55.53a.6.6,0,0,0,0,.87.62.62,0,0,0,.87,0c3.31-3.3,7.95-1.17,12.06,1.36a.62.62,0,0,0,.32.09.64.64,0,0,0,.53-.29A.63.63,0,0,0,76.71,56.7Z"/><path d="M54.37,57.29a.64.64,0,0,0,.5.25.62.62,0,0,0,.5-1c-3.73-5.06-10.65-2.12-13.6-.87a.62.62,0,0,0,.48,1.14C46.69,54.94,51.59,53.52,54.37,57.29Z"/><path d="M55.78,69.92a.64.64,0,0,0,.42.78.89.89,0,0,1,.7.74.61.61,0,0,0,.61.52h.1a.61.61,0,0,0,.51-.71,2.12,2.12,0,0,0-1.57-1.73A.62.62,0,0,0,55.78,69.92Z"/><path d="M55.5,70.48a.31.31,0,1,0-.61-.14.8.8,0,0,0,.5,1,.23.23,0,0,0,.11,0,.3.3,0,0,0,.29-.19.33.33,0,0,0-.17-.42C55.51,70.7,55.46,70.64,55.5,70.48Z"/><path d="M60.45,71.24A.61.61,0,0,0,61,72h.1a.62.62,0,0,0,.61-.52.89.89,0,0,1,.7-.74A.63.63,0,0,0,62,69.5,2.14,2.14,0,0,0,60.45,71.24Z"/><path d="M62.78,71.14a.3.3,0,0,0,.29.2l.11,0a.78.78,0,0,0,.49-1,.31.31,0,0,0-.37-.24.32.32,0,0,0-.23.38c0,.16,0,.22-.12.25A.32.32,0,0,0,62.78,71.14Z"/><path d="M29,96.56a1.68,1.68,0,0,0,.29,2.36l0,0a1.55,1.55,0,0,0-1.94.48c-.77,1-.27,2,.89,2.88l1.62,1.22,4.32-5.7-1.75-1.32C31.08,95.55,29.8,95.44,29,96.56Zm.58,5.83-.81-.62c-.87-.66-1.15-1.23-.69-1.85s1.11-.65,2.08.09l.78.58Zm1.82-2.4-.92-.7c-1-.76-1.32-1.45-.79-2.15s1.4-.67,2.37.07l.92.69Z"/><polygon points="27.33 93.19 28.58 94.44 29.13 93.9 25.98 90.74 25.43 91.28 26.68 92.54 22.7 96.5 21.45 95.24 20.91 95.78 24.06 98.95 24.61 98.41 23.36 97.15 27.33 93.19"/><polygon points="23.65 87.86 23.1 87.13 18 90.97 16.58 89.08 15.97 89.54 19.35 94.03 19.96 93.57 18.54 91.69 23.65 87.86"/><path d="M20.63,83.45l-3.28,1.8c-.64.37-1.27.81-1.89,1.19h0l1-1.33,2.82-4.18-.48-.87-6.26,3.46.43.77,3.24-1.8c.66-.36,1.32-.83,1.92-1.2v0l-1,1.32-2.82,4.17.48.88,6.26-3.46Z"/><path d="M17.92,78.21l-2.28.14-.93-2.42,1.8-1.41-.34-.9-5.83,4.8.37,1,7.54-.3Zm-4.18.25c-.84.06-1.65.12-2.51.21v0c.7-.5,1.34-1,2-1.52l.9-.7.76,2Z"/><polygon points="15.46 70.69 15.26 69.8 9.03 71.22 8.51 68.93 7.76 69.1 9.01 74.58 9.76 74.41 9.23 72.11 15.46 70.69"/><polygon points="8.05 64.95 13.64 64.47 13.79 66.25 14.56 66.17 14.19 61.73 13.41 61.8 13.57 63.56 7.98 64.04 7.82 62.27 7.07 62.34 7.44 66.79 8.2 66.72 8.05 64.95"/><path d="M10.53,60.12c2.34.13,3.79-.93,3.88-2.54s-1.25-2.82-3.59-2.94S7.09,55.58,7,57.19,8.22,60,10.53,60.12Zm.24-4.55c1.82.1,2.9.88,2.84,2s-1.2,1.74-3,1.65-2.83-.87-2.77-2S9,55.48,10.77,55.57Z"/><path d="M14.76,52.7,11.1,52c-.73-.14-1.5-.2-2.22-.31v0l1.59-.39,4.84-1.39.19-1-7-1.36-.16.86,3.64.7c.74.15,1.55.21,2.24.32v0l-1.59.39L7.77,51.21l-.19,1,7,1.36Z"/><path d="M21.77,34.76l-2.32-1.63.72-1c.9-1.29.94-2.58-.29-3.44s-2.34-.34-3.24,1L15.39,31.4l5.86,4.1Zm-5.26-3.69.66-.93c.71-1,1.34-1.31,2.18-.72s.87,1.32.15,2.35l-.66.94Z"/><path d="M25.15,30.23l-1.12-2,1.77-1.9,2.05,1,.65-.71-6.86-3.11-.71.75,3.59,6.63Zm-2.07-3.64c-.41-.73-.83-1.44-1.27-2.16l0,0c.75.41,1.49.76,2.23,1.13l1,.5-1.45,1.56Z"/><path d="M30,25.37l-2.36-2.91c-.46-.57-1-1.11-1.49-1.66h0l1.47.72,4.61,2,.77-.63-4.5-5.55-.67.55,2.32,2.88c.48.58,1.06,1.15,1.53,1.69h0l-1.47-.72-4.6-2.05-.78.63,4.5,5.56Z"/><path d="M36.81,20.66a3,3,0,0,0,1.41-1.81l-1.56-2.58-1.94,1.17.39.65,1.23-.74.95,1.6a1.8,1.8,0,0,1-.84,1c-1.21.73-2.47.17-3.4-1.37s-.73-2.93.41-3.63a1.92,1.92,0,0,1,1.59-.19L35.2,14a2.71,2.71,0,0,0-2.15.27c-1.58,1-2,2.83-.8,4.82S35.27,21.59,36.81,20.66Z"/><polygon points="44.39 16.87 44.09 16.15 40.76 17.57 39.74 15.19 42.47 14.03 42.17 13.31 39.44 14.48 38.56 12.41 41.79 11.03 41.49 10.33 37.42 12.07 40.22 18.64 44.39 16.87"/><path d="M46.28,14l2.5-.67L50,15.27l.93-.25L46.74,8.74l-1,.27-.47,7.52.89-.24Zm.07-1.91c0-.83,0-1.65.06-2.51h0c.43.75.86,1.44,1.31,2.15l.61,1-2.06.54Z"/><path d="M66.15,12.41l2.57.4.33,2.26.94.15L68.72,7.79l-1-.16-3.48,6.69.92.14ZM67,10.7c.36-.74.71-1.49,1.07-2.27h0c.1.85.21,1.66.34,2.49l.16,1.12-2.11-.32Z"/><path d="M73,12.93l1.22.37L75,16.69l1,.3-.84-3.51A2,2,0,0,0,77.25,12c.42-1.43-.43-2.23-1.81-2.65l-2.12-.64-2.08,6.83.86.26Zm1-3.25L75.1,10c1.07.32,1.55.82,1.28,1.72s-1,1.15-2,.83l-1.13-.35Z"/><path d="M79.27,18.46c1.46.68,2.73.51,3.33-.76a1.69,1.69,0,0,0-.78-2.25v0a1.57,1.57,0,0,0,1.8-.88c.53-1.14-.16-2-1.49-2.62l-1.84-.86-3,6.49Zm1.53-6.33.92.42c1,.47,1.4,1,1.07,1.66s-1,.88-2.06.36l-.88-.4Zm-.22,3.21c1.14.53,1.59,1.14,1.23,1.94s-1.23.95-2.33.44l-1-.49,1.11-2.37Z"/><polygon points="83.41 19.68 82.98 20.34 86.73 22.76 87.16 22.12 85.66 21.15 88.72 16.44 90.21 17.4 90.62 16.77 86.88 14.33 86.46 14.98 87.95 15.94 84.9 20.65 83.41 19.68"/><polygon points="89.62 25.08 90.31 25.69 94.49 20.86 96.27 22.4 96.77 21.82 92.52 18.14 92.02 18.71 93.8 20.25 89.62 25.08"/><path d="M93.64,28.92l2.27-2,.85,1-1.15,3.28.69.78,1.14-3.42a2,2,0,0,0,2.59-.12c1.11-1,.82-2.12-.14-3.21l-1.46-1.67-5.38,4.7Zm4.83-4.22.79.9c.73.83.87,1.52.17,2.13s-1.44.46-2.17-.38l-.79-.9Z"/><path d="M97.25,33.31l2.2-.62,1.42,2.18-1.45,1.75.52.8,4.67-5.92-.56-.86-7.31,1.89Zm4-1.14c.8-.22,1.58-.47,2.4-.72l0,0c-.57.63-1.1,1.27-1.62,1.91l-.73.88-1.17-1.79Z"/><polygon points="101.25 40.12 101.65 40.95 107.42 38.23 108.42 40.36 109.12 40.04 106.72 34.95 106.03 35.27 107.04 37.41 101.25 40.12"/><polygon points="104.36 45.82 103.83 44.13 103.09 44.35 104.41 48.62 105.15 48.39 104.63 46.69 109.99 45.05 110.52 46.74 111.24 46.51 109.92 42.24 109.19 42.47 109.72 44.17 104.36 45.82"/><path d="M108.33,49.41c-2.31.38-3.51,1.72-3.26,3.31s1.82,2.49,4.13,2.12,3.45-1.7,3.19-3.29S110.61,49.05,108.33,49.41Zm3.28,2.26c.17,1.08-.78,2-2.56,2.24s-3-.24-3.19-1.32.81-2,2.62-2.25S111.44,50.6,111.61,51.67Z"/><path d="M105.74,57.56l3.74-.08c.74,0,1.5-.11,2.23-.16v0l-1.47.72-4.44,2.38,0,1L113,61.3l0-.88-3.71.08c-.75,0-1.55.12-2.26.16v0l1.46-.72,4.45-2.37,0-1-7.14.15Z"/><polygon points="108.29 79.79 102.4 77.32 102.05 78.16 107.93 80.63 107.02 82.81 107.73 83.11 109.91 77.92 109.2 77.62 108.29 79.79"/><path d="M103.85,82.92c-2-1.2-3.79-.93-4.62.45S99,86.44,101,87.64s3.74.91,4.56-.47S105.83,84.11,103.85,82.92Zm1.06,3.84c-.56.93-1.85,1-3.39.08s-2.16-2.13-1.6-3.07,1.88-1,3.44,0S105.47,85.82,104.91,86.76Z"/><polygon points="96.5 87.68 98.28 89.11 98.65 90.99 94.42 90.26 93.78 91.06 98.82 91.87 99.52 95.34 100.17 94.53 99.25 89.94 99.28 89.91 102.07 92.16 102.64 91.45 97.08 86.97 96.5 87.68"/><polygon points="89.53 95.08 90.07 95.65 92.7 93.17 94.47 95.05 92.32 97.09 92.85 97.65 95 95.62 96.54 97.25 93.99 99.66 94.51 100.22 97.73 97.18 92.83 91.97 89.53 95.08"/><path d="M87.64,96.53l2.16,3.06c.42.6,1,1.18,1.39,1.75h0l-1.42-.81-4.46-2.35-.81.58,4.12,5.84.72-.5-2.14-3c-.44-.62-1-1.23-1.41-1.78l0,0,1.41.82,4.47,2.34.81-.58L88.35,96Z"/><path d="M58.13,12.31a2.11,2.11,0,1,0-2.1-2.1A2.11,2.11,0,0,0,58.13,12.31Z"/><path d="M108.49,67.38a2.1,2.1,0,1,0,2.1,2.1A2.1,2.1,0,0,0,108.49,67.38Z"/><path d="M39,103.21a2.1,2.1,0,1,0,2.1,2.1A2.11,2.11,0,0,0,39,103.21Z"/><path d="M14.21,42.39a2.1,2.1,0,1,0-2.1-2.1A2.1,2.1,0,0,0,14.21,42.39Z"/><path d="M82.09,103.21a2.1,2.1,0,1,0,2.1,2.1A2.1,2.1,0,0,0,82.09,103.21Z"/><path d="M50.57,104.88l-1.16,1.44c-.28.35-.58.75-.92,1.25l-.05,0c-.14-.61-.23-1.11-.33-1.55l-.43-1.83-2.19-.53,1.35,4.77-3.6,3.83,2.07.5,1.34-1.54c.32-.4.64-.78,1-1.26h0c.11.59.21,1.08.35,1.58l.51,2,2.17.53-1.46-5,3.41-3.72Z"/><path d="M56.72,105.7l-3.14-.23-.64,8.87,2,.14.22-3,1.14.08c1.88.13,3.54-.67,3.69-2.75S58.64,105.83,56.72,105.7ZM56.29,110l-1-.07.19-2.68,1,.07c1.07.08,1.61.46,1.54,1.38S57.39,110,56.29,110Z"/><path d="M63.12,105.72l-1.93,9.1,2-.18.34-2.16,2.68-.25.72,2.06,2.11-.21-3.57-8.58Zm.71,5.16.13-.83c.15-.91.3-2,.43-2.92h0c.29.92.65,1.92,1,2.78l.28.8Z"/><polygon points="75.39 103.32 68.3 105.21 68.73 106.84 71.3 106.16 73.16 113.11 75.11 112.59 73.26 105.64 75.82 104.95 75.39 103.32"/></svg>