<svg id="Layer_1" data-name="Layer 1" xmlns="http://www.w3.org/2000/svg" viewBox="0 0 120 120"><title>icon-passport-step-2</title><path d="M32.39,34.51H26.64a1.53,1.53,0,1,0,0,3.05h5.75a1.53,1.53,0,1,0,0-3.05Z"/><path d="M32.39,42.18H26.64a1.53,1.53,0,1,0,0,3h5.75a1.53,1.53,0,1,0,0-3Z"/><path d="M32.39,49.85H26.64a1.53,1.53,0,1,0,0,3h5.75a1.53,1.53,0,1,0,0-3Z"/><path d="M32.39,57.51H26.64a1.53,1.53,0,0,0,0,3.06h5.75a1.53,1.53,0,0,0,0-3.06Z"/><path d="M32.39,65.18H26.64a1.53,1.53,0,0,0,0,3.06h5.75a1.53,1.53,0,0,0,0-3.06Z"/><path d="M32.39,72.85H26.64a1.53,1.53,0,0,0,0,3.06h5.75a1.53,1.53,0,0,0,0-3.06Z"/><path d="M41.07,37.58H61.62a1.53,1.53,0,1,0,0-3H41.07a1.53,1.53,0,1,0,0,3Z"/><path d="M41.07,45.25H66a1.53,1.53,0,0,0,0-3.06H41.07a1.53,1.53,0,1,0,0,3.06Z"/><path d="M41.07,52.91H53.53a1.53,1.53,0,1,0,0-3H41.07a1.53,1.53,0,1,0,0,3Z"/><path d="M41.07,60.58H61.62a1.53,1.53,0,1,0,0-3.06H41.07a1.53,1.53,0,0,0,0,3.06Z"/><path d="M41.07,68.24H74.38a1.53,1.53,0,1,0,0-3H41.07a1.53,1.53,0,1,0,0,3Z"/><path d="M53.53,72.85H41.07a1.53,1.53,0,1,0,0,3.06H53.53a1.53,1.53,0,0,0,0-3.06Z"/><path d="M61.92,86.27H58.08a1.53,1.53,0,0,0,0,3.06h3.84a1.53,1.53,0,0,0,0-3.06Z"/><path d="M118.47,86.27h-9V70.83a16.85,16.85,0,0,0,0-31.25v-17a1.53,1.53,0,0,0-1.53-1.53H12.07a1.53,1.53,0,0,0-1.53,1.53V86.27h-9a1.54,1.54,0,0,0-1.27.67,1.55,1.55,0,0,0-.15,1.43L3.94,98a1.54,1.54,0,0,0,1.42,1H114.64a1.54,1.54,0,0,0,1.42-1l3.83-9.58a1.53,1.53,0,0,0-1.42-2.1Zm-9-43.33a13.79,13.79,0,0,1,0,24.53A14.18,14.18,0,0,1,103.14,69a13.81,13.81,0,0,1,0-27.62,14,14,0,0,1,6.32,1.54Zm4.15,52.92H6.39L3.78,89.33H48.89a1.53,1.53,0,0,0,0-3.06H13.6V24.14h92.8V38.67a16.86,16.86,0,1,0,0,33.08V86.27H71.58a1.53,1.53,0,0,0,0,3.06h44.64Z"/><path d="M96.39,55.25a1.52,1.52,0,1,0-1.84,2.43l6,4.5a1.54,1.54,0,0,0,.92.31l.27,0a1.51,1.51,0,0,0,1-.67l7.46-11.5a1.53,1.53,0,1,0-2.56-1.66L101,58.75Z"/></svg>